<svg width="14" height="14" viewBox="0 0 14 14" fill="none" xmlns="http://www.w3.org/2000/svg">
<path d="M6.99935 7.58317C7.32151 7.58317 7.58268 7.322 7.58268 6.99984C7.58268 6.67767 7.32151 6.4165 6.99935 6.4165C6.67718 6.4165 6.41602 6.67767 6.41602 6.99984C6.41602 7.322 6.67718 7.58317 6.99935 7.58317Z" fill="#ADA4A5" stroke="#ADA4A5" stroke-width="2" stroke-linecap="round" stroke-linejoin="round"/>
<path d="M6.99935 3.50016C7.32151 3.50016 7.58268 3.239 7.58268 2.91683C7.58268 2.59466 7.32151 2.3335 6.99935 2.3335C6.67718 2.3335 6.41602 2.59466 6.41602 2.91683C6.41602 3.239 6.67718 3.50016 6.99935 3.50016Z" fill="#ADA4A5" stroke="#ADA4A5" stroke-width="2" stroke-linecap="round" stroke-linejoin="round"/>
<path d="M6.99935 11.6667C7.32151 11.6667 7.58268 11.4055 7.58268 11.0833C7.58268 10.7612 7.32151 10.5 6.99935 10.5C6.67718 10.5 6.41602 10.7612 6.41602 11.0833C6.41602 11.4055 6.67718 11.6667 6.99935 11.6667Z" fill="#ADA4A5" stroke="#ADA4A5" stroke-width="2" stroke-linecap="round" stroke-linejoin="round"/>
</svg>
