<svg width="55" height="55" viewBox="0 0 55 55" fill="none" xmlns="http://www.w3.org/2000/svg">
<mask id="mask0_848_1939" style="mask-type:alpha" maskUnits="userSpaceOnUse" x="0" y="0" width="55" height="55">
<circle cx="27.5" cy="27.5" r="27.5" fill="#C4C4C4"/>
</mask>
<g mask="url(#mask0_848_1939)">
<path d="M41.156 40.0892C41.6157 35.5194 41.1774 31.0653 40.393 26.5673C39.9361 23.9367 39.755 21.2674 39.8527 18.6009C39.938 16.7487 39.4625 14.913 38.4854 13.3231C37.3693 11.4027 35.4664 9.85245 33.1275 10.1232C33.0213 10.1451 32.9115 10.1451 32.8052 10.1232C32.7194 10.0911 32.6394 10.0458 32.5683 9.98896C31.3597 9.09352 29.3668 8.82281 27.8834 8.80198C26.0557 8.77097 24.247 9.16766 22.6085 9.95888C19.8407 11.3148 17.7056 13.9294 17.1582 16.9003C16.9662 18.1358 16.9423 19.3907 17.0871 20.6324C17.1819 21.6621 17.324 22.7148 17.1368 23.7237C16.8738 25.1119 16.016 26.3105 15.4781 27.6224C14.7984 29.2574 14.4701 31.0112 14.5136 32.7752C14.5681 34.0386 14.9543 37.2455 16.4259 37.7036C18.4094 38.3237 20.5042 38.5204 22.5871 38.7124L28.4592 39.2585C29.464 39.3511 30.4877 39.4436 31.4664 39.2076C32.1986 39.0317 32.874 38.6801 33.5991 38.4811C34.4991 38.2356 35.4501 38.2308 36.3527 38.4672" fill="#AA4F7A"/>
<g style="mix-blend-mode:multiply" opacity="0.32">
<g style="mix-blend-mode:multiply" opacity="0.32">
<path d="M23.8152 14.5522L20.0237 15.6744C19.9546 15.6905 19.8894 15.7196 19.8317 15.76C19.7674 15.8193 19.7207 15.8944 19.6967 15.9775C19.0458 17.591 18.6048 19.2778 18.3839 20.9985C18.1042 23.2452 19.1516 25.4664 18.481 27.7085L17.7085 30.3809C17.3199 31.6836 16.9289 33.0534 17.2346 34.3769C17.4715 35.4181 18.1042 36.3204 18.5687 37.283C19.2668 38.7318 19.5813 40.3285 19.4834 41.9268C19.4834 41.8759 22.564 41.2673 22.846 41.1864C23.9964 40.8652 25.1277 40.482 26.2347 40.0387C27.1967 39.6546 28.1304 39.1849 29.0949 38.8379C29.6707 38.6342 30.1991 38.4862 30.5973 38.0026C31.6992 36.6629 31.9551 34.3005 31.9977 32.6554C32.046 30.7158 31.672 28.7884 30.9006 27.0005C30.3618 25.7496 29.62 24.5918 28.7039 23.5714" fill="#AA4F7A"/>
</g>
</g>
<path d="M12.1178 39.3975C9.98504 42.8011 8.67934 46.6674 7.96369 50.6009C7.65563 52.3015 7.46368 54.1271 8.26464 55.6658C9.57034 58.2109 13.1652 57.5006 15.4756 56.9939C18.997 56.2257 23.2956 54.6593 25.4994 51.7902" fill="#EA7C99"/>
<path d="M45.198 57.2901C46.0724 54.8629 45.8805 51.8133 45.6719 49.4232C45.4184 46.3713 44.762 43.5831 43.2762 40.8251C42.1624 38.7612 40.9918 36.489 38.7998 35.3877C37.7382 34.8532 36.5913 34.5038 35.4823 34.048C34.1316 33.488 32.8401 32.2872 33.2145 30.73C33.4515 29.7004 34.2098 28.8581 34.9894 28.1223C35.4354 27.6815 35.8473 27.209 36.2216 26.7086C36.2432 26.6767 36.2725 26.6504 36.3069 26.6323C36.3584 26.6199 36.4127 26.6248 36.461 26.6461C37.0458 26.8283 37.6723 26.8407 38.2642 26.6817C38.8561 26.5228 39.388 26.1993 39.7951 25.7507C40.5676 24.9177 40.7762 23.1477 40.0961 22.1851C39.5084 21.3522 38.0415 21.0653 37.1292 21.4401C37.4847 19.5706 37.551 16.9143 36.7524 15.1443C36.0083 13.4297 34.0865 12.1386 32.4443 11.3473C30.8021 10.556 29.0059 10.4056 27.2168 10.6C25.3376 10.8059 23.385 11.4931 22.2949 12.9994C21.8798 13.6231 21.5605 14.3029 21.3471 15.017C20.7306 16.8173 20.298 18.6728 20.0556 20.5562C19.8518 22.1528 19.7997 24.0454 20.148 25.6258C20.3415 26.6165 20.8371 27.5271 21.5698 28.238C22.4822 29.0756 23.2523 29.344 24.494 29.5153C25.7902 29.6957 27.6457 29.941 28.2855 31.2159C29.4277 33.458 27.5746 34.5223 25.6646 35.1656C21.5343 36.5538 21.6765 40.6608 21.122 44.1708C20.885 45.7257 20.1741 46.9821 19.6646 48.4421C19.3933 49.3316 19.2342 50.25 19.1907 51.177C19.1456 51.6953 18.9087 52.4242 18.9892 52.9286C19.0745 53.47 19.52 53.7477 19.9537 54.1017C21.2878 55.1868 22.7973 56.0591 24.2831 56.9129C25.5723 57.6264 26.9324 58.2102 28.3424 58.6552C30.3116 59.3077 32.1339 60.1268 34.1766 60.5641C35.7089 60.9164 37.2676 61.1485 38.8378 61.2582C41.2335 61.3948 43.4729 60.5039 44.6625 58.4146C44.8737 58.0554 45.0528 57.6792 45.198 57.2901Z" fill="#FF8DA8"/>
<g style="mix-blend-mode:multiply" opacity="0.2">
<g style="mix-blend-mode:multiply" opacity="0.2">
<path d="M31.2499 10.7202C31.5556 12.0668 31.3092 13.4644 31.1504 14.8341C30.9916 16.2039 30.9371 17.6593 31.5769 18.8902C31.9946 19.6438 32.6402 20.2532 33.4256 20.6354C34.211 21.0175 35.098 21.1539 35.9656 21.0259C35.5246 18.376 34.6204 15.8198 33.2926 13.469" fill="#FF8DA8"/>
</g>
</g>
<path d="M23.3779 15.0492C23.1812 14.2278 21.6409 14.8733 21.2452 15.1649C20.911 15.4078 20.4537 15.9215 20.9726 16.2431C21.4916 16.5647 22.6006 15.9493 23.0153 15.6623C23.2215 15.5119 23.4371 15.2806 23.3779 15.0492Z" fill="#843860"/>
<path d="M29.5236 14.7301C29.7203 13.9087 31.2606 14.5566 31.6564 14.8481C31.9881 15.0795 32.4455 15.6024 31.9265 15.9241C31.4075 16.2457 30.2985 15.6302 29.8838 15.3433C29.68 15.1998 29.4644 14.9754 29.5236 14.7301Z" fill="#843860"/>
<path d="M38.857 61.2653C41.2528 61.4018 43.4921 60.511 44.6817 58.4216C44.8868 58.0596 45.0596 57.6811 45.1983 57.2902C46.0727 54.863 45.8808 51.8134 45.6722 49.4233C45.4187 46.3714 44.7623 43.5832 43.2765 40.8252C42.2812 38.9742 41.2362 36.9727 39.4613 35.7788C39.402 35.8135 39.3404 35.8482 39.2836 35.8852C36.0039 37.9283 33.0963 40.9316 29.2455 41.4708C26.9706 41.7877 24.6483 41.1723 22.5796 40.1912C22.3284 40.0709 22.0654 39.946 21.7952 39.828C21.4682 41.2162 21.3568 42.7549 21.1317 44.1802C20.8947 45.7351 20.1838 46.9915 19.6744 48.4515C19.4031 49.3409 19.2439 50.2593 19.2004 51.1864C19.1554 51.7047 18.9184 52.4335 18.999 52.9379C19.0843 53.4794 19.5298 53.757 19.9635 54.111C21.2976 55.1962 22.8071 56.0685 24.2929 56.9223C25.5821 57.6358 26.9421 58.2195 28.3522 58.6646C30.3214 59.3171 32.1437 60.1362 34.1863 60.5735C35.7218 60.9254 37.2837 61.1568 38.857 61.2653Z" fill="#F26757"/>
<g style="mix-blend-mode:multiply" opacity="0.25">
<g style="mix-blend-mode:multiply" opacity="0.25">
<path d="M32.0379 26.9925C33.2982 26.9925 34.3199 25.9949 34.3199 24.7643C34.3199 23.5337 33.2982 22.5361 32.0379 22.5361C30.7776 22.5361 29.7559 23.5337 29.7559 24.7643C29.7559 25.9949 30.7776 26.9925 32.0379 26.9925Z" fill="#FF8DA8"/>
</g>
<g style="mix-blend-mode:multiply" opacity="0.25">
<path d="M21.5896 24.0153C21.5893 23.5309 21.4271 23.0598 21.1277 22.6735C20.8284 22.2873 20.4081 22.0069 19.9308 21.875C19.8331 23.129 19.9056 24.3902 20.1464 25.6257C20.1773 25.7645 20.2152 25.9033 20.2555 26.0398C20.6534 25.863 20.9908 25.5781 21.2274 25.2191C21.464 24.8601 21.5897 24.4422 21.5896 24.0153Z" fill="#FF8DA8"/>
</g>
</g>
<path d="M45.9816 48.9282C45.8024 46.9979 45.4051 45.0929 44.7968 43.2479C44.3228 41.7971 43.8916 40.0548 42.7352 38.9905C40.9437 37.3407 38.4579 37.704 36.7256 39.2936C34.4649 41.376 35.1593 44.067 36.2209 46.5288C36.9768 48.2827 37.8394 50.0412 37.9887 51.9362C38.0144 52.0972 37.9947 52.2619 37.9318 52.4128C37.7801 52.7021 37.382 52.7553 37.0479 52.7553C35.3559 52.7553 33.6948 52.3365 32.055 51.9223L27.145 50.6821C25.7113 50.3212 24.261 49.9556 22.8677 49.4604C21.6639 51.0692 20.6667 52.8161 19.8984 54.6618C22.1188 56.3856 24.4601 58.0539 27.1284 59.0303C31.1047 60.488 36.1522 62.5843 40.5456 61.6935C41.6634 61.4897 42.7064 61.0016 43.5693 60.2785C44.4322 59.5554 45.0845 58.6228 45.4603 57.5749C46.4864 54.8469 46.2233 51.765 45.9816 48.9282Z" fill="#FF8DA8"/>
<path d="M34.4174 33.4186C34.0591 33.156 33.7551 32.8294 33.5216 32.4561C31.9448 32.9704 30.2408 32.9785 28.659 32.4792C28.6634 32.8968 28.525 33.3039 28.2656 33.6361C30.2787 34.2714 32.4566 34.1944 34.4174 33.4186Z" fill="#F7BF54"/>
<path d="M30.8398 9.88493C31.7332 10.6739 31.9749 11.8771 32.091 13.0016C32.2688 14.7462 32.2617 16.5394 32.9323 18.1822C33.6029 19.825 35.1645 21.3267 37.0958 21.3845C37.2058 21.3967 37.3168 21.3748 37.4134 21.322C37.4833 21.2604 37.5328 21.1799 37.5556 21.0907C38.7854 17.8213 37.5556 13.9179 34.6029 11.729C33.5626 10.9655 32.3446 10.4055 31.1598 9.85254" fill="#AA4F7A"/>
<g style="mix-blend-mode:multiply" opacity="0.2">
<g style="mix-blend-mode:multiply" opacity="0.2">
<path d="M21.0215 16.1248C22.5168 16.5506 24.0736 16.8468 25.6305 16.7473C27.1874 16.6478 28.749 16.1272 29.896 15.0883C31.0429 14.0494 31.6851 12.4505 31.3628 10.9604C29.3518 12.4201 26.9415 13.2626 24.4386 13.3807" fill="#FF8DA8"/>
</g>
</g>
<path d="M31.4299 10.2457C31.8707 11.4049 31.3352 12.7353 30.4489 13.6377C28.9892 15.1232 26.783 15.6414 24.6834 15.8289C22.5839 16.0163 20.4346 15.9492 18.418 16.5508C18.9511 13.9223 21.136 11.8098 23.6716 10.7825C26.2071 9.75514 29.046 9.69035 31.7712 9.98883" fill="#AA4F7A"/>
<path d="M23.916 24.3366C23.9172 24.3205 23.9172 24.3042 23.916 24.2881C23.9084 24.2242 23.8879 24.1624 23.8558 24.1063C23.8236 24.0502 23.7804 24.0008 23.7287 23.9611C23.6769 23.9213 23.6177 23.8919 23.5542 23.8745C23.4908 23.8572 23.4245 23.8523 23.3592 23.86L18.0392 24.4708C17.9265 24.4843 17.8219 24.5347 17.7423 24.6137C17.6627 24.6927 17.6128 24.7956 17.6008 24.9058L16.6529 33.77C16.6396 33.899 16.6789 34.028 16.7623 34.1289C16.8457 34.2298 16.9665 34.2945 17.0984 34.3091H17.1529C17.2768 34.3086 17.3961 34.2635 17.488 34.1823C17.5798 34.1012 17.6377 33.9898 17.6506 33.8695L18.5629 25.3964L23.281 24.8526C23.3216 24.7144 23.4039 24.5912 23.5172 24.4992C23.6304 24.4072 23.7694 24.3505 23.916 24.3366Z" fill="#B9B5EC"/>
<path d="M26.9099 21.9605C26.8862 21.9605 26.8435 22.0762 26.7227 22.259C26.5466 22.5176 26.3005 22.7234 26.0118 22.8536C25.8215 22.9429 25.6138 22.9911 25.4028 22.9948C25.1658 22.9948 25.0378 22.9161 25.0829 22.6801C25.1279 22.4441 25.2772 22.1896 25.3696 21.9119C25.4791 21.6254 25.5732 21.3334 25.6516 21.0373C25.9337 20.0007 26.0425 18.9264 25.9739 17.8558C25.9194 17.0344 25.7748 16.5439 25.7369 16.5509C25.699 16.5578 25.763 17.0576 25.7653 17.8628C25.7714 18.9096 25.6376 19.9526 25.3672 20.9656C25.2843 21.2617 25.199 21.5487 25.0995 21.8194C25.0521 21.9559 24.9976 22.0878 24.9478 22.2173C24.8874 22.3524 24.8429 22.4936 24.8151 22.6385C24.7986 22.7194 24.7986 22.8028 24.8151 22.8837C24.8341 22.9733 24.8823 23.0545 24.9525 23.1151C25.0805 23.2095 25.2414 23.2511 25.4004 23.2308C25.6432 23.2148 25.8794 23.1469 26.0924 23.0318C26.4008 22.8717 26.6495 22.6207 26.8033 22.3145C26.9217 22.097 26.9241 21.9651 26.9099 21.9605Z" fill="#C45673"/>
<path d="M24.1664 19.0566C24.1238 19.0566 24.0906 19.4338 23.9295 20.0169C23.8405 20.3576 23.7224 20.6904 23.5764 21.0118C23.4904 21.1947 23.3839 21.3678 23.2588 21.5278C23.1442 21.6887 22.9772 21.8069 22.7849 21.8633C22.6968 21.891 22.6027 21.8948 22.5126 21.8744C22.4225 21.8541 22.3397 21.8102 22.2731 21.7476C22.1426 21.6009 22.0435 21.4301 21.9816 21.2455C21.8456 20.922 21.7447 20.5854 21.6806 20.2413C21.5811 19.649 21.6072 19.2672 21.5598 19.2626C21.5124 19.2579 21.4271 19.6397 21.4792 20.2668C21.5098 20.6347 21.5895 20.9972 21.7162 21.345C21.7834 21.5682 21.8999 21.7743 22.0574 21.9489C22.1558 22.0493 22.2816 22.12 22.42 22.1525C22.5577 22.1861 22.7017 22.1861 22.8394 22.1525C23.0976 22.081 23.3227 21.925 23.4769 21.7106C23.6132 21.5263 23.7261 21.3266 23.8134 21.1159C23.9589 20.7764 24.0669 20.4227 24.1356 20.0608C24.2446 19.4454 24.202 19.0566 24.1664 19.0566Z" fill="#C45673"/>
<path d="M31.7723 18.8533C31.7273 18.8533 31.7439 19.2883 31.6041 19.957C31.5231 20.3445 31.395 20.7213 31.2226 21.0792C31.1257 21.2795 30.9887 21.4589 30.8197 21.6067C30.644 21.7539 30.4208 21.8358 30.1894 21.8381C30.0765 21.8288 29.9668 21.7965 29.8676 21.743C29.7684 21.6896 29.6818 21.6163 29.6135 21.528C29.4666 21.3563 29.349 21.1625 29.2652 20.9542C29.1113 20.5822 29.0023 20.194 28.9406 19.7973C28.8339 19.124 28.8789 18.6936 28.8339 18.689C28.7889 18.6844 28.6799 19.1124 28.7368 19.8228C28.7765 20.2426 28.8745 20.6551 29.0282 21.0491C29.1141 21.2905 29.2415 21.5159 29.405 21.7154C29.4989 21.8326 29.6171 21.929 29.7519 21.9984C29.8867 22.0678 30.035 22.1086 30.187 22.118C30.4897 22.1202 30.7826 22.0131 31.0093 21.8173C31.2115 21.6448 31.3732 21.4317 31.4832 21.1925C31.6534 20.8088 31.7682 20.4039 31.8245 19.9894C31.8979 19.286 31.8055 18.851 31.7723 18.8533Z" fill="#C45673"/>
<path d="M37.0478 25.94C37.0881 25.9169 36.9364 25.6902 36.9151 25.2876C36.9058 25.0515 36.9428 24.8159 37.0241 24.5934C37.1253 24.3221 37.27 24.0682 37.453 23.8414C37.7899 23.416 38.2044 23.0552 38.6758 22.7771C39.0407 22.5619 39.2919 22.4647 39.2801 22.4231C39.2682 22.3814 38.991 22.4231 38.581 22.6012C38.0457 22.8438 37.5795 23.2108 37.2232 23.6702C37.0195 23.9237 36.8653 24.2115 36.7682 24.5194C36.6897 24.7751 36.6711 25.0447 36.7137 25.3084C36.7943 25.7619 37.0265 25.9655 37.0478 25.94Z" fill="#C45673"/>
<path d="M37.3711 25.6003C37.383 25.6327 37.5489 25.6142 37.7456 25.4476C37.8689 25.3358 37.9682 25.2011 38.0373 25.0512C38.1065 24.9014 38.1443 24.7396 38.1484 24.5753C38.1541 24.2543 38.0626 23.9388 37.8854 23.6683C37.7503 23.467 37.6318 23.3721 37.601 23.393C37.5702 23.4138 37.6247 23.5503 37.7005 23.7562C37.8053 24.0139 37.8584 24.2888 37.8569 24.566C37.847 24.8347 37.7564 25.0947 37.5963 25.3134C37.4707 25.4823 37.3522 25.561 37.3711 25.6003Z" fill="#C45673"/>
<path d="M23.9101 25.1395C23.8083 25.1107 23.7092 25.0736 23.6139 25.0284C23.5167 24.9872 23.4342 24.9187 23.3769 24.8317C23.3688 24.818 23.3645 24.8024 23.3645 24.7866C23.3645 24.7708 23.3688 24.7552 23.3769 24.7415C23.4022 24.7 23.4381 24.6657 23.4811 24.642C23.5309 24.6119 23.5973 24.5772 23.666 24.5448L23.7703 24.4985L23.8508 24.4661C23.881 24.446 23.9081 24.4219 23.9314 24.3944C23.948 24.3736 23.9717 24.3389 23.9954 24.3019C23.9946 24.207 23.9554 24.1163 23.8864 24.0497L23.8153 24.015L23.7845 23.9918L23.73 23.9548C23.6953 23.9304 23.6621 23.9042 23.6304 23.8761C23.5673 23.8212 23.5094 23.7608 23.4575 23.6956C23.4086 23.634 23.3643 23.569 23.3248 23.5013C23.3011 23.4411 23.3082 23.4504 23.3248 23.4296C23.3716 23.3981 23.4267 23.3804 23.4835 23.3787C23.5546 23.3752 23.6257 23.3752 23.6968 23.3787L24.1115 23.3925C24.621 23.3925 24.9385 23.3925 24.9409 23.3509C24.9433 23.3092 24.6328 23.2537 24.1281 23.1936L23.7134 23.1473H23.5996C23.5546 23.1449 23.5096 23.1449 23.4646 23.1473C23.355 23.1469 23.2481 23.1801 23.1589 23.2421C23.0977 23.2887 23.0578 23.3568 23.0475 23.4319C23.0391 23.4994 23.0514 23.5679 23.083 23.6285C23.1258 23.7171 23.1783 23.8009 23.2394 23.8784C23.3004 23.9612 23.3686 24.0386 23.4432 24.1098C23.4812 24.1422 23.5214 24.1769 23.5641 24.207L23.6281 24.251L23.6565 24.2695L23.5475 24.3227C23.4764 24.3597 23.4077 24.3967 23.3319 24.4453C23.2498 24.4999 23.1843 24.575 23.1423 24.6628C23.122 24.7122 23.1138 24.7655 23.1184 24.8185C23.1229 24.8715 23.14 24.9228 23.1683 24.9682C23.2558 25.0887 23.3791 25.18 23.5214 25.2297C23.5805 25.2538 23.6416 25.2732 23.7039 25.2875L23.8603 25.3222C24.2584 25.4032 24.5025 25.4379 24.512 25.4032C24.5214 25.3685 24.2892 25.269 23.9101 25.1395Z" fill="#C45673"/>
<path d="M23.7425 34.4229L11.2969 35.154L13.1926 50.9202C13.2129 51.0864 13.2982 51.2384 13.4308 51.3445C13.5633 51.4506 13.7327 51.5025 13.9035 51.4894L21.8444 51.0058C22.0038 50.9963 22.1544 50.9309 22.2685 50.8217C22.3825 50.7124 22.4524 50.5667 22.4652 50.4112L23.7425 34.4229Z" fill="#F9A353"/>
<path d="M12.8411 48.0372L22.8626 45.2931L23.5592 36.7065L11.8672 39.9065L12.8411 48.0372Z" fill="#F7BF54"/>
<g style="mix-blend-mode:multiply" opacity="0.14">
<g style="mix-blend-mode:multiply" opacity="0.14">
<path d="M11.2969 35.154L13.1926 50.9202C13.2129 51.0864 13.2982 51.2384 13.4308 51.3445C13.5633 51.4506 13.7327 51.5025 13.9035 51.4894L20.2235 51.1053C18.5349 48.7135 17.2151 46.0926 16.3064 43.3263C15.4221 40.6142 15.0354 37.7708 15.1642 34.9272L11.2969 35.154Z" fill="#F9A353"/>
</g>
</g>
<path d="M23.7545 32.9979L10.6157 33.787C10.3231 33.8046 10.1005 34.0505 10.1185 34.3362L10.1686 35.1306C10.1866 35.4163 10.4384 35.6337 10.731 35.6161L23.8698 34.827C24.1624 34.8094 24.385 34.5635 24.367 34.2778L24.3169 33.4834C24.299 33.1977 24.0472 32.9803 23.7545 32.9979Z" fill="#F7BF54"/>
<g style="mix-blend-mode:multiply" opacity="0.2">
<g style="mix-blend-mode:multiply" opacity="0.2">
<path d="M45.9808 48.9276C45.8016 46.9973 45.4043 45.0922 44.796 43.2472C44.322 41.7965 43.8907 40.0542 42.7343 38.9899C41.4239 37.7844 39.7462 37.6571 38.2604 38.2957L35.2793 43.4555C35.4538 44.5164 35.7725 45.5497 36.2272 46.5282C36.7651 47.7754 37.3551 49.0271 37.7059 50.3275C39.3421 50.598 40.9968 50.7488 42.6561 50.7787C43.8175 50.8137 44.9796 50.7362 46.1254 50.5473C46.0709 49.9873 46.0258 49.4575 45.9808 48.9276Z" fill="#FF8DA8"/>
</g>
</g>
<path d="M35.9476 48.8698C39.1349 49.5639 43.0567 49.3996 46.1373 47.9258C46.0473 47.0581 45.0022 44.0293 44.9051 43.7123C44.2108 41.4194 43.7202 39.0107 41.8719 37.4651C40.2131 36.0583 37.9524 35.7089 36.2036 37.155C35.8129 37.4941 35.4871 37.8984 35.2415 38.349C33.9453 40.5933 34.469 43.8188 35.168 46.1927C35.4239 47.0843 35.6838 47.9767 35.9476 48.8698Z" fill="#DB5449"/>
<path d="M39.0977 33.3463C38.5527 32.164 39.0361 31.0187 38.3465 29.8756C37.9816 29.2764 37.318 28.7187 37.0858 28.0431C36.8773 27.4485 36.8844 26.6548 36.8275 26.0139C36.669 24.2682 36.8035 22.5089 37.2256 20.8055C37.2554 20.7153 37.2659 20.62 37.2564 20.5256C37.218 20.3971 37.1423 20.2822 37.0384 20.1947C36.3232 19.4745 35.6589 18.7076 35.0503 17.8994L35.6474 21.0138C35.5834 21.6524 35.4981 22.2841 35.3962 22.9319C35.2245 24.1714 34.8726 25.3805 34.3512 26.5229C33.1403 29.0103 32.3749 32.2496 33.6142 34.8873C34.1237 35.9679 35.1474 36.8703 36.3583 36.9929C37.8962 37.1456 39.4531 36.0674 40.92 36.5301C40.2209 35.5214 39.6113 34.4563 39.0977 33.3463Z" fill="#AA4F7A"/>
<path d="M23.3992 56.9635C21.2664 55.8621 18.1005 53.7959 18.4655 51.0355C18.5585 50.1782 18.8047 49.3434 19.193 48.569C19.5223 47.979 19.9039 47.4492 19.5697 46.7342C19.3494 46.2714 18.8043 45.9429 18.4181 45.6189C17.9325 45.234 17.5098 44.7792 17.1645 44.27C17.1393 44.2406 17.122 44.2055 17.1142 44.1679C17.1063 44.1304 17.1081 44.0915 17.1195 44.0548C17.3375 43.6777 18.8944 44.4967 19.1408 44.6495C19.8303 45.0698 20.3974 45.6563 20.7878 46.3524C20.7451 46.2737 20.8138 45.9706 20.802 45.8619C20.7716 45.702 20.7206 45.5465 20.6503 45.3991C20.5493 45.0766 20.4257 44.7612 20.2806 44.4551C19.9394 43.8119 19.4536 43.2565 19.0508 42.6526C18.9472 42.5153 18.876 42.3573 18.8422 42.1899C18.8262 42.1073 18.8352 42.022 18.868 41.9444C18.9008 41.8667 18.9561 41.8001 19.0271 41.7526C19.264 41.6207 19.5508 41.8104 19.7522 41.984C20.1906 42.3681 20.738 42.7984 21.0034 43.326C21.3162 43.9461 21.4916 44.6842 21.7143 45.339C21.9513 45.3876 21.6645 43.8026 21.6148 43.6591C21.4513 43.1802 21.4062 42.7475 21.1148 42.3287C20.7356 41.7873 20.2427 41.2459 20.2404 40.5887C20.2325 40.5185 20.2427 40.4475 20.27 40.382C20.2973 40.3166 20.3409 40.2588 20.3968 40.2139C20.5911 40.0959 20.8304 40.2671 20.9821 40.4337C22.0603 41.63 22.4347 43.2242 22.6219 44.7767L23.2428 42.4074C23.2925 42.2223 23.411 41.9909 23.603 42.0302C23.6643 42.0484 23.7193 42.0828 23.7617 42.1297C24.2973 42.6735 24.1077 43.4694 23.9703 44.1242C23.8115 44.8831 23.6906 45.6513 23.5887 46.4195C23.4987 47.0928 23.3518 47.7615 23.3257 48.4418C23.2949 49.0526 23.6575 49.4344 24.1977 49.7352C24.4919 49.8719 24.798 49.9827 25.1124 50.0661C25.4418 50.1794 25.7404 50.3692 26.0793 50.471" fill="#FF8DA8"/>
<path d="M41.132 19.6769C39.132 19.0452 36.7575 18.999 34.6793 19.0082H34.6604C34.3665 16.817 32.7646 15.1349 30.8452 15.1349C29.0371 15.1349 27.5276 16.6204 27.1011 18.6172C26.7998 18.3435 26.4036 18.1913 25.992 18.1913C25.5805 18.1913 25.1843 18.3435 24.883 18.6172C24.5228 16.5348 22.9612 14.9429 21.0915 14.9429C18.9588 14.9429 17.2266 17.0045 17.2266 19.5381C17.2266 22.0717 18.9588 24.1333 21.0915 24.1333C23.2242 24.1333 24.9565 22.0717 24.9565 19.5381C24.9565 19.4663 24.9565 19.3969 24.9565 19.3252C25.0417 19.1277 25.1852 18.9595 25.3687 18.842C25.5523 18.7245 25.7675 18.6631 25.987 18.6656C26.2064 18.6681 26.4202 18.7343 26.6009 18.8559C26.7816 18.9776 26.9211 19.149 27.0015 19.3483C27.0015 19.4756 26.9849 19.6029 26.9849 19.7324C26.9849 22.2776 28.7196 24.3276 30.8499 24.3276C32.9803 24.3276 34.7149 22.2637 34.7149 19.7301C34.7149 19.6491 34.7149 19.5728 34.7149 19.4987C36.2439 19.4904 37.7714 19.5972 39.2836 19.818C39.8642 19.9037 40.4401 20.0193 41.0135 20.1489C42.2149 20.4219 42.4353 21.5626 42.4922 22.5691C42.5112 22.8815 43.0135 22.8838 42.9922 22.5691C42.8903 21.2271 42.5349 20.1142 41.132 19.6769ZM21.0963 23.5433C19.2953 23.5433 17.8332 21.7454 17.8332 19.5358C17.8332 17.3261 19.2953 15.5283 21.0963 15.5283C22.8972 15.5283 24.3593 17.3261 24.3593 19.5358C24.3593 21.7454 22.8949 23.5433 21.0963 23.5433ZM30.8452 23.7376C29.0466 23.7376 27.5821 21.9398 27.5821 19.7301C27.5821 17.5204 29.0466 15.7226 30.8452 15.7226C32.6438 15.7226 34.1106 17.5204 34.1106 19.7301C34.1106 21.9398 32.6461 23.7376 30.8452 23.7376Z" fill="#F7BF54"/>
</g>
</svg>
