<svg width="375" height="406" viewBox="0 0 375 406" fill="none" xmlns="http://www.w3.org/2000/svg">
<g clip-path="url(#clip0_848_2694)">
<path d="M0 102.599C0 102.599 13.8333 60.4389 42.7333 71.378C83.0333 86.6062 186.333 330.158 294.733 330.158C350.3 330.158 375 287.599 375 287.599V-43H0V102.599Z" fill="url(#paint0_linear_848_2694)"/>
<path d="M167.6 130.828C167.6 130.828 170.067 114.037 188.967 114.037C207.867 114.037 217.033 135.516 221.3 148.118C225.567 160.719 236.567 172.589 250.9 179.605C265.233 186.62 276.067 194.168 274.233 210.061C274.233 210.061 304.9 234.001 246.467 238.423C188.033 242.845 159.333 206.171 162.867 187.285C166.4 168.4 143.6 142.798 167.6 130.828Z" fill="#3B2645"/>
<path d="M202.967 171.126C202.967 171.126 200.3 196.928 211.633 199.189C211.633 199.189 216.333 245.505 189.9 245.505C163.467 245.505 166.167 200.585 166.167 200.585C166.167 200.585 177.433 197.626 176.533 172.722C175.633 147.818 203.333 153.803 202.967 171.126Z" fill="#FFEDE5"/>
<path d="M195.1 173.42C197.333 164.942 185.833 163.213 178.1 162.98C177 165.474 176.366 168.699 176.5 172.722C176.666 176.246 176.5 179.804 176.066 183.329C180.466 183.661 192.4 183.628 195.1 173.42Z" fill="#E0855C"/>
<path d="M173.316 165.508C175.701 164.69 176.393 160.423 174.861 155.978C173.329 151.532 170.153 148.591 167.768 149.409C165.383 150.227 164.691 154.494 166.223 158.939C167.756 163.385 170.931 166.326 173.316 165.508Z" fill="#E0855C"/>
<path d="M213.016 158.9C214.548 154.454 213.857 150.187 211.472 149.369C209.086 148.551 205.911 151.492 204.379 155.938C202.847 160.384 203.538 164.651 205.923 165.468C208.308 166.286 211.484 163.345 213.016 158.9Z" fill="#E0855C"/>
<path d="M169.033 134.984C169.033 134.984 167.2 179.505 188.333 179.605C204.767 179.671 209.467 159.688 209.733 137.178C210 114.669 169.3 117.694 169.033 134.984Z" fill="#FFEDE5"/>
<path d="M190 166.571C186.467 166.571 183.367 164.443 183.334 164.41C183.167 164.31 183.134 164.11 183.267 163.944C183.367 163.778 183.567 163.745 183.734 163.878C183.8 163.911 189.8 168.001 194.234 164.509C194.367 164.41 194.6 164.41 194.7 164.576C194.8 164.742 194.8 164.942 194.634 165.041C193.134 166.172 191.534 166.571 190 166.571Z" fill="#472938"/>
<path d="M176.267 148.151C176.267 148.151 179.033 149.913 183.7 148.483C183.7 148.45 179.733 152.507 176.267 148.151Z" fill="#472938"/>
<path d="M202.8 148.517C202.8 148.517 200.033 150.279 195.366 148.849C195.366 148.849 199.333 152.906 202.8 148.517Z" fill="#472938"/>
<path d="M174.667 142.731C174.667 142.731 178.167 138.874 183.267 140.071C185.867 140.67 184.867 137.478 180.167 137.677C175.467 137.877 174.667 142.731 174.667 142.731Z" fill="#472938"/>
<path d="M204.667 142.731C204.667 142.731 201.167 138.874 196.067 140.071C193.467 140.67 194.467 137.478 199.167 137.677C203.867 137.877 204.667 142.731 204.667 142.731Z" fill="#472938"/>
<path d="M189.2 159.123C188.2 159.123 186.067 158.392 185.334 157.66C185.067 157.394 184.967 157.128 185 156.862C185.067 156.463 185.367 155.2 185.8 153.604C186.367 151.309 187.1 148.483 187.334 147.087C187.567 145.757 187.334 144.36 186.7 143.163C186.6 142.997 186.667 142.797 186.834 142.698C187 142.598 187.2 142.665 187.3 142.831C188 144.161 188.267 145.69 188 147.186C187.767 148.616 187.034 151.476 186.467 153.77C186.067 155.299 185.734 156.629 185.7 156.962C185.7 156.995 185.734 157.062 185.834 157.195C186.534 157.893 188.734 158.558 189.367 158.458C190.2 158.325 191.934 157.527 192.534 156.829C192.667 156.696 192.867 156.696 193 156.796C193.134 156.929 193.134 157.128 193.034 157.261C192.3 158.059 190.434 158.957 189.467 159.09C189.334 159.123 189.267 159.123 189.2 159.123Z" fill="#472938"/>
<path d="M169.333 146.389C169.333 146.389 170.666 135.782 173.966 131.892C173.966 131.892 179.5 129.431 188.3 134.652C197.1 139.872 203.266 144.261 211.433 142.964C211.433 142.964 212.2 117.661 191.1 119.024C170 120.388 165.666 131.393 169.333 146.389Z" fill="#3B2645"/>
<path d="M308.767 302.727C308.433 302.195 307.433 303.093 307.433 303.093C307.433 303.093 306.4 301.929 303.6 302.761C300.8 303.592 292.5 310.707 292.5 310.707C288.767 310.641 282.667 314.298 282.667 314.298C282.667 314.298 278.067 312.403 273.9 306.152C269.733 299.901 265.2 296.842 265.2 296.842C265.2 296.842 255.433 257.674 248.833 233.236C242.133 236.062 233.433 247.201 227.233 256.178C227.367 260.401 227.5 263.094 227.5 263.094C227.5 263.094 249.233 320.616 252.033 322.345C254.833 324.074 286.8 327.93 287.133 327.698C287.467 327.465 290.4 328.23 291.6 327.698C292.8 327.166 294.267 328.03 295.733 327.033C297.2 326.035 299.733 327.565 300.767 326.6C301.8 325.636 303.6 326.035 304.8 325.47C306 324.905 312.7 315.462 312.833 313.766C312.967 312.07 309.1 303.259 308.767 302.727Z" fill="#FFEDE5"/>
<path d="M232.833 244.707C232.833 244.707 244.2 264.058 235.2 283.11L227.467 263.027L232.833 244.707Z" fill="#E0855C"/>
<path d="M248.8 233.17C246.434 224.392 244.467 217.509 243.5 215.015C239.834 205.44 233.067 205.007 233.067 205.007C226.4 205.107 226.734 240.75 227.2 256.112C233.4 247.134 242.1 236.029 248.8 233.17Z" fill="#AB8DA8"/>
<path d="M257.801 298.87C257.667 298.87 257.534 298.771 257.467 298.638C257.434 298.471 257.534 298.272 257.701 298.239L264.234 296.51C264.401 296.476 264.601 296.576 264.634 296.742C264.667 296.909 264.567 297.108 264.401 297.141L257.867 298.87C257.867 298.87 257.834 298.87 257.801 298.87Z" fill="#472938"/>
<path d="M290.134 321.513C289.967 321.513 289.801 321.38 289.801 321.181C289.634 317.124 284.834 316.958 284.634 316.958C284.434 316.958 284.301 316.792 284.301 316.625C284.301 316.426 284.467 316.293 284.634 316.293C284.701 316.293 290.234 316.492 290.434 321.147C290.501 321.347 290.334 321.513 290.134 321.513C290.167 321.513 290.167 321.513 290.134 321.513Z" fill="#472938"/>
<path d="M288.667 324.539C288.634 324.539 288.567 324.539 288.534 324.506C288.367 324.439 288.301 324.24 288.367 324.074C288.767 323.209 292.367 315.429 293.867 314.431C295.101 313.6 296.601 313.866 297.201 314.398C297.601 314.73 297.467 315.063 297.434 315.163C297.267 315.528 295.334 320.316 294.367 322.777C294.301 322.943 294.101 323.043 293.934 322.976C293.767 322.91 293.667 322.71 293.734 322.544C293.834 322.245 296.434 315.794 296.801 314.963C296.734 314.897 296.567 314.764 296.234 314.697C295.967 314.631 295.101 314.464 294.234 315.03C293.101 315.794 290.034 322.045 288.934 324.406C288.901 324.472 288.801 324.539 288.667 324.539Z" fill="#472938"/>
<path d="M299.2 322.045C299 322.045 298.867 321.912 298.867 321.713C298.867 321.646 298.867 321.646 299.8 318.355C300.567 315.661 301.8 311.272 301.934 310.574C301.734 310.375 300.8 309.976 300.167 310.175C299.667 310.341 298.134 312.602 297 314.597C296.9 314.764 296.7 314.797 296.534 314.73C296.367 314.631 296.334 314.431 296.4 314.265C297 313.234 299 309.843 299.934 309.51C300.734 309.244 301.767 309.61 302.234 309.943C302.467 310.109 302.6 310.308 302.6 310.474C302.6 310.674 302.134 312.37 300.434 318.488C300 320.05 299.567 321.547 299.534 321.713C299.534 321.912 299.367 322.045 299.2 322.045Z" fill="#472938"/>
<path d="M303.901 321.347C303.867 321.347 303.867 321.347 303.834 321.347C303.667 321.314 303.534 321.114 303.567 320.948C304.734 315.761 306.434 307.848 306.467 306.983C306.334 306.784 305.734 306.451 304.701 306.451C304.134 306.451 302.701 308.346 301.734 310.109C301.634 310.275 301.434 310.341 301.267 310.242C301.101 310.142 301.034 309.942 301.134 309.776C301.667 308.845 303.467 305.786 304.701 305.786C305.867 305.786 306.834 306.185 307.101 306.75C307.167 306.883 307.334 307.249 304.201 321.081C304.201 321.247 304.067 321.347 303.901 321.347Z" fill="#472938"/>
<path d="M306.401 306.784C306.268 306.784 306.134 306.684 306.068 306.551C305.534 304.855 307.101 302.96 307.168 302.894C307.301 302.761 307.501 302.727 307.634 302.86C307.768 302.993 307.801 303.193 307.668 303.326C307.668 303.359 306.268 305.022 306.701 306.385C306.768 306.551 306.668 306.75 306.468 306.817C306.468 306.784 306.434 306.784 306.401 306.784Z" fill="#472938"/>
<path d="M304.633 318.122C304.567 318.122 304.5 318.089 304.467 318.055C304.3 317.956 304.267 317.756 304.367 317.59L307.1 313.467L306.3 308.48C306.267 308.313 306.4 308.114 306.567 308.114C306.733 308.081 306.933 308.214 306.933 308.38L307.8 313.633L304.933 317.989C304.833 318.055 304.733 318.122 304.633 318.122Z" fill="#472938"/>
<path d="M73.4666 308.28C73.7666 307.748 74.7999 308.579 74.7999 308.579C74.7999 308.579 75.7999 307.382 78.6333 308.114C81.4666 308.845 90.0333 315.595 90.0333 315.595C93.7333 315.395 100.033 318.787 100.033 318.787C100.033 318.787 104.567 316.692 108.5 310.275C112.433 303.858 116.833 300.599 116.833 300.599C116.833 300.599 125 261.099 130.633 236.361C137.433 238.922 146.567 249.694 153.133 258.406C153.167 262.628 153.167 265.322 153.167 265.322C153.167 265.322 133.767 323.641 131.033 325.503C128.3 327.365 96.4999 332.452 96.1999 332.253C95.8999 332.053 92.9666 332.918 91.7333 332.419C90.4999 331.92 89.0999 332.884 87.5666 331.92C86.0333 330.956 83.5999 332.585 82.4999 331.687C81.3999 330.79 79.6666 331.222 78.3999 330.723C77.1333 330.224 70.0999 321.048 69.8999 319.352C69.6999 317.656 73.1666 308.812 73.4666 308.28Z" fill="#FFEDE5"/>
<path d="M147.033 247.3C147.033 247.3 136.467 267.117 146.2 285.77L153.1 265.388L147.033 247.3Z" fill="#E0855C"/>
<path d="M130.6 236.395C132.6 227.55 134.3 220.601 135.166 218.041C138.433 208.332 145.2 207.601 145.2 207.601C151.866 207.434 152.933 243.078 153.1 258.439C146.533 249.761 137.4 238.988 130.6 236.395Z" fill="#AB8DA8"/>
<path d="M124.233 302.395C124.2 302.395 124.2 302.395 124.167 302.395L117.567 300.932C117.4 300.899 117.267 300.699 117.3 300.533C117.333 300.367 117.533 300.234 117.7 300.267L124.3 301.73C124.467 301.763 124.6 301.963 124.567 302.129C124.533 302.295 124.367 302.395 124.233 302.395Z" fill="#472938"/>
<path d="M92.8001 326.301C92.6001 326.301 92.4668 326.135 92.4668 325.968C92.5001 321.28 98.0001 320.881 98.0668 320.881C98.2335 320.881 98.4001 321.014 98.4335 321.181C98.4335 321.38 98.3001 321.513 98.1335 321.546C97.9335 321.546 93.1668 321.912 93.1668 325.968C93.1335 326.168 93.0001 326.301 92.8001 326.301Z" fill="#472938"/>
<path d="M94.4333 329.26C94.2999 329.26 94.1999 329.194 94.1333 329.094C92.9666 326.8 89.6333 320.649 88.4666 319.917C87.5666 319.385 86.6999 319.585 86.4333 319.651C86.1333 319.751 85.9666 319.884 85.9 319.95C86.3 320.782 89.1333 327.132 89.2666 327.431C89.3333 327.598 89.2666 327.797 89.0999 327.864C88.9333 327.93 88.7333 327.864 88.6666 327.697C87.5666 325.27 85.4666 320.549 85.3 320.183C85.1666 319.95 85.2666 319.651 85.5 319.418C86.0666 318.886 87.5666 318.554 88.8333 319.319C90.3999 320.25 94.2999 327.897 94.7333 328.761C94.7999 328.928 94.7666 329.127 94.5999 329.194C94.5333 329.26 94.4666 329.26 94.4333 329.26Z" fill="#472938"/>
<path d="M83.7669 327.166C83.6003 327.166 83.4669 327.066 83.4336 326.9C83.4003 326.733 82.9669 325.403 82.4669 323.841C80.4669 317.69 79.9336 315.961 79.9336 315.761C79.9336 315.562 80.0336 315.395 80.2669 315.229C80.7336 314.863 81.7336 314.464 82.5669 314.697C83.5336 314.963 85.6669 318.288 86.3003 319.286C86.4003 319.452 86.3336 319.651 86.2003 319.751C86.0336 319.851 85.8336 319.784 85.7336 319.651C84.5003 317.69 82.8669 315.495 82.4003 315.362C81.7336 315.163 80.8336 315.628 80.6336 315.828C80.8003 316.426 82.2336 320.948 83.1336 323.675C84.1336 326.767 84.1336 326.767 84.1336 326.833C84.1336 326.999 83.9669 327.166 83.7669 327.166C83.8003 327.166 83.8003 327.166 83.7669 327.166Z" fill="#472938"/>
<path d="M79.0669 326.7C78.9336 326.7 78.8002 326.6 78.7336 326.467C75.0669 312.735 75.2336 312.37 75.2669 312.237C75.5002 311.638 76.4336 311.206 77.6336 311.173H77.6669C78.9002 311.173 80.8002 314.132 81.3669 315.03C81.4669 315.196 81.4002 315.395 81.2669 315.495C81.1002 315.595 80.9002 315.528 80.8002 315.395C79.7669 313.7 78.2669 311.838 77.7002 311.838C76.7002 311.871 76.1002 312.237 75.9669 312.436C76.0336 313.301 78.0669 321.147 79.4336 326.268C79.4669 326.434 79.3669 326.634 79.2002 326.667C79.1002 326.667 79.0669 326.7 79.0669 326.7Z" fill="#472938"/>
<path d="M75.9997 312.27C75.9663 312.27 75.933 312.27 75.8997 312.27C75.733 312.236 75.5997 312.037 75.6663 311.871C76.033 310.474 74.5997 308.878 74.5663 308.845C74.433 308.712 74.4663 308.513 74.5997 308.38C74.733 308.247 74.933 308.28 75.0663 308.413C75.133 308.479 76.7663 310.308 76.2997 312.037C76.2663 312.17 76.133 312.27 75.9997 312.27Z" fill="#472938"/>
<path d="M78.2004 323.475C78.1004 323.475 78.0004 323.442 77.9337 323.342L74.9004 319.119L75.5337 313.832C75.5671 313.666 75.7337 313.533 75.9004 313.533C76.0671 313.566 76.2004 313.733 76.2004 313.899L75.6004 318.92L78.5004 322.943C78.6004 323.076 78.5671 323.309 78.4337 323.408C78.3337 323.475 78.2671 323.475 78.2004 323.475Z" fill="#472938"/>
<path d="M211.6 199.189L233.066 205.007C233.066 205.007 230.466 239.62 234.9 246.769C239.333 253.917 236.866 270.176 231.5 278.256C231.5 278.256 222.9 305.853 225.233 312.336C227.566 318.82 235.4 333.151 235.4 333.151C235.4 333.151 200.433 350.839 149.833 335.112C149.833 335.112 159.866 314.032 158.3 305.953C156.733 297.873 145.9 275.363 146.033 264.723C146.166 254.083 149.566 225.688 144.6 207.734L166.066 200.585C166.066 200.585 166.433 242.745 190.866 242.745C215.3 242.745 211.6 199.189 211.6 199.189Z" fill="#AB8DA8"/>
<path d="M231.533 278.256C231.533 278.256 228.866 283.576 211.933 285.803C211.933 285.803 228.233 287.034 226.599 296.809L231.533 278.256Z" fill="#543753"/>
<path d="M148.366 276.76C148.366 276.76 152.366 284.241 170.466 285.936C170.466 285.936 150.633 282.944 154.333 293.783L148.366 276.76Z" fill="#543753"/>
<path d="M146.133 266.585C145.967 266.585 145.8 266.452 145.8 266.286C145.767 265.721 145.733 265.222 145.767 264.723C145.8 262.329 146 259.071 146.2 255.28C146.5 250.094 146.867 243.643 146.967 237.027C146.967 236.827 147.1 236.694 147.3 236.694C147.5 236.694 147.633 236.86 147.633 237.027C147.533 243.643 147.167 250.127 146.867 255.314C146.633 259.104 146.467 262.363 146.433 264.757C146.433 265.222 146.433 265.721 146.467 266.253C146.467 266.386 146.333 266.552 146.133 266.585Z" fill="#472938"/>
<path d="M234.9 247.101C234.8 247.101 234.667 247.035 234.6 246.935C233.133 244.574 232.267 239.155 232.033 230.842C232.033 230.643 232.167 230.51 232.367 230.51C232.533 230.51 232.7 230.643 232.7 230.842C232.933 239.055 233.767 244.375 235.167 246.602C235.267 246.769 235.2 246.968 235.067 247.068C235.033 247.068 234.967 247.101 234.9 247.101Z" fill="#472938"/>
<path d="M151 332.652C151 332.652 169.833 339.8 191.866 339.036C213.9 338.271 258 322.378 278.6 325.636C299.2 328.894 297.866 337.639 297.166 341.662C296.466 345.685 253.7 406.033 216.133 406.033H158.566C158.566 406.033 87.8329 361.579 85.5329 348.744C83.2329 335.91 84.8996 328.23 104.633 327.864C124.366 327.498 145.7 330.923 151 332.652Z" fill="#3B2645"/>
<path d="M191.133 352.236C191.133 352.236 219.266 340.565 242.766 336.542C242.766 336.542 257.899 359.95 253.466 379.733C253.433 379.733 199.633 367.963 191.133 352.236Z" fill="#FFEDE5"/>
<path d="M191.133 352.236C191.133 352.236 259.199 361.113 253.433 379.733C247.666 398.353 191.133 352.236 191.133 352.236Z" fill="#E0855C"/>
<path d="M221.733 385.917C221.733 385.917 151.967 391.902 136.667 395.028C121.367 398.153 105.867 396.757 96.3999 400.048C86.9332 403.34 81.6999 405.867 80.5666 406C79.4332 406.133 76.8332 391.47 81.5999 386.283C81.5999 386.283 80.1332 380.996 86.7999 376.907C93.4666 372.817 104.533 378.203 108.633 376.907C112.733 375.61 115.667 374.413 120.033 375.344C124.4 376.275 135.067 378.902 135.067 378.902C135.067 378.902 190 344.089 221.733 385.917Z" fill="#FFEDE5"/>
<path d="M135.1 378.902L176.533 390.14L221.733 385.917C221.733 385.917 201.133 364.771 172.7 366.733C144.266 368.694 135.1 378.902 135.1 378.902Z" fill="#E0855C"/>
<path d="M149.533 337.107C149.533 337.107 170.933 341.43 201.866 357.589C232.8 373.748 258.4 367.131 267.433 370.257C276.466 373.382 293.6 370.955 296.4 373.382C299.2 375.81 301.033 380.065 299.366 381.894C299.366 381.894 306.833 398.984 306.133 400.115C305.433 401.245 302.833 401.146 301.6 400.88C300.366 400.614 289.5 395.227 277 392.999C264.5 390.772 230.033 385.984 202.566 384.587C175.1 383.191 135.1 380.431 135.1 380.431C135.1 380.431 136.033 346.816 149.533 337.107Z" fill="#FFEDE5"/>
<path d="M297.1 382.592C296.033 382.592 294.6 382.393 292.767 381.761C292.6 381.695 292.5 381.495 292.567 381.329C292.633 381.162 292.833 381.063 293 381.129C297.133 382.592 299.133 381.595 299.167 381.595C299.333 381.495 299.533 381.562 299.6 381.728C299.7 381.894 299.633 382.094 299.467 382.16C299.433 382.16 298.667 382.592 297.1 382.592Z" fill="#472938"/>
<path d="M84.9669 387.314C82.6336 387.314 81.5003 386.582 81.4336 386.549C81.2669 386.449 81.2336 386.25 81.3336 386.084C81.4336 385.917 81.6336 385.884 81.8003 385.984C81.8003 385.984 83.0003 386.715 85.3336 386.616C87.7669 386.549 90.4003 385.352 90.4336 385.352C90.6003 385.286 90.8003 385.352 90.8669 385.518C90.9336 385.685 90.8669 385.884 90.7003 385.951C90.6003 386.017 87.9003 387.181 85.3669 387.281C85.2336 387.314 85.1003 387.314 84.9669 387.314Z" fill="#472938"/>
</g>
<defs>
<linearGradient id="paint0_linear_848_2694" x1="375" y1="330.158" x2="-124.768" y2="291.295" gradientUnits="userSpaceOnUse">
<stop stop-color="#92A3FD"/>
<stop offset="1" stop-color="#9DCEFF"/>
</linearGradient>
<clipPath id="clip0_848_2694">
<rect width="375" height="422" fill="white" transform="translate(0 -16)"/>
</clipPath>
</defs>
</svg>
