<svg width="19" height="17" viewBox="0 0 19 17" fill="none" xmlns="http://www.w3.org/2000/svg">
<path d="M18.7326 0.152978C18.6512 0.0899731 18.5551 0.0446016 18.4514 0.0203188C18.3478 -0.00396401 18.2394 -0.00651786 18.1344 0.0128518L6.17148 2.56061C6.01404 2.59423 5.87421 2.67592 5.77552 2.79193C5.67683 2.90794 5.62531 3.05118 5.62963 3.19754V12.7898C4.97932 12.479 4.2539 12.3192 3.51852 12.3249C1.54815 12.3249 0 13.3503 0 14.6624C0 15.9745 1.54815 17 3.51852 17C5.48889 17 7.03704 15.9745 7.03704 14.6624V6.88542L17.5926 4.63703V12.7898C16.9423 12.479 16.2169 12.3192 15.4815 12.3249C13.5111 12.3249 11.963 13.3503 11.963 14.6624C11.963 15.9745 13.5111 17 15.4815 17C17.4519 17 19 15.9745 19 14.6624V0.64979C18.9995 0.554119 18.9752 0.459776 18.9289 0.373767C18.8826 0.287759 18.8155 0.212294 18.7326 0.152978ZM3.51852 15.7261C2.27296 15.7261 1.40741 15.1656 1.40741 14.6624C1.40741 14.1593 2.27296 13.5987 3.51852 13.5987C4.76407 13.5987 5.62963 14.1593 5.62963 14.6624C5.62963 15.1656 4.76407 15.7261 3.51852 15.7261ZM7.03704 5.57969V3.70073L17.5926 1.45233V3.36315L7.03704 5.57969ZM15.4815 15.7261C14.2359 15.7261 13.3704 15.1656 13.3704 14.6624C13.3704 14.1593 14.2359 13.5987 15.4815 13.5987C16.727 13.5987 17.5926 14.1593 17.5926 14.6624C17.5926 15.1656 16.727 15.7261 15.4815 15.7261Z" fill="#ADA4A5"/>
</svg>
