<?xml version="1.0" encoding="utf-8"?>
<!-- Generator: Adobe Illustrator 24.2.0, SVG Export Plug-In . SVG Version: 6.00 Build 0)  -->
<!DOCTYPE svg PUBLIC "-//W3C//DTD SVG 1.1//EN" "http://www.w3.org/Graphics/SVG/1.1/DTD/svg11.dtd" [
	<!ENTITY ns_extend "http://ns.adobe.com/Extensibility/1.0/">
	<!ENTITY ns_ai "http://ns.adobe.com/AdobeIllustrator/10.0/">
	<!ENTITY ns_graphs "http://ns.adobe.com/Graphs/1.0/">
	<!ENTITY ns_vars "http://ns.adobe.com/Variables/1.0/">
	<!ENTITY ns_imrep "http://ns.adobe.com/ImageReplacement/1.0/">
	<!ENTITY ns_sfw "http://ns.adobe.com/SaveForWeb/1.0/">
	<!ENTITY ns_custom "http://ns.adobe.com/GenericCustomNamespace/1.0/">
	<!ENTITY ns_adobe_xpath "http://ns.adobe.com/XPath/1.0/">
]>
<svg version="1.1" xmlns:x="&ns_extend;" xmlns:i="&ns_ai;" xmlns:graph="&ns_graphs;"
	 xmlns="http://www.w3.org/2000/svg" xmlns:xlink="http://www.w3.org/1999/xlink" x="0px" y="0px" width="1000px" height="525px"
	 viewBox="0 0 1000 525" enable-background="new 0 0 1000 525" xml:space="preserve">
<metadata>
	<sfw  xmlns="&ns_sfw;">
		<slices></slices>
		<sliceSourceBounds  bottomLeftOrigin="true" height="10178.737" width="9541.392" x="-5560" y="-1726"></sliceSourceBounds>
	</sfw>
</metadata>
<g id="FILL-BACKGROUND">
	<rect fill="#FFFFFF" width="1000" height="525"/>
</g>
<g id="N-TEXT">
</g>
<g id="AG-DIAGRAM">
	<g id="POLYLINE_1306_">
		<g>
			<g>
				
					<line fill="none" stroke="#FF6B6B" stroke-width="3.25" stroke-linecap="round" stroke-linejoin="round" x1="585.095" y1="73.622" x2="585.095" y2="75.622"/>
				
					<line fill="none" stroke="#FF6B6B" stroke-width="3.25" stroke-linecap="round" stroke-linejoin="round" stroke-dasharray="3.962,6.9334" x1="585.095" y1="82.556" x2="585.095" y2="449.533"/>
				<polyline fill="none" stroke="#FF6B6B" stroke-width="3.25" stroke-linecap="round" stroke-linejoin="round" points="
					585.095,453 585.095,455 587.095,455 				"/>
				
					<line fill="none" stroke="#FF6B6B" stroke-width="3.25" stroke-linecap="round" stroke-linejoin="round" stroke-dasharray="3.9969,6.9945" x1="594.089" y1="455" x2="942.315" y2="455"/>
				
					<line fill="none" stroke="#FF6B6B" stroke-width="3.25" stroke-linecap="round" stroke-linejoin="round" x1="945.812" y1="455" x2="947.812" y2="455"/>
			</g>
		</g>
	</g>
	<g id="POLYLINE_1305_">
		<g>
			<g>
				
					<line fill="none" stroke="#FF6B6B" stroke-width="3.25" stroke-linecap="round" stroke-linejoin="round" x1="101.959" y1="73.622" x2="101.959" y2="75.622"/>
				
					<line fill="none" stroke="#FF6B6B" stroke-width="3.25" stroke-linecap="round" stroke-linejoin="round" stroke-dasharray="3.962,6.9334" x1="101.959" y1="82.556" x2="101.959" y2="449.533"/>
				<polyline fill="none" stroke="#FF6B6B" stroke-width="3.25" stroke-linecap="round" stroke-linejoin="round" points="
					101.959,453 101.959,455 103.959,455 				"/>
				
					<line fill="none" stroke="#FF6B6B" stroke-width="3.25" stroke-linecap="round" stroke-linejoin="round" stroke-dasharray="3.9784,6.9622" x1="110.921" y1="455" x2="490.362" y2="455"/>
				
					<line fill="none" stroke="#FF6B6B" stroke-width="3.25" stroke-linecap="round" stroke-linejoin="round" x1="493.843" y1="455" x2="495.843" y2="455"/>
			</g>
		</g>
	</g>
</g>
<g id="AG-PEOPLE">
	<g id="POLYLINE_1287_">
		
			<path fill="none" stroke="#FF6B6B" stroke-width="2.75" stroke-linecap="round" stroke-linejoin="round" stroke-miterlimit="10" d="
			M652.846,394.458c2.593-1.52,5.613-2.494,8.574-2.985"/>
	</g>
	<g id="POLYLINE_1286_">
		
			<path fill="none" stroke="#FF6B6B" stroke-width="2.75" stroke-linecap="round" stroke-linejoin="round" stroke-miterlimit="10" d="
			M589.02,190.38c0.488-4.038,0.916-8.312,0.968-12.372c0.058-3.197-0.269-6.423-1.12-9.51c-0.307-1.139-0.686-2.292-1.108-3.393
			c-0.642-1.589-1.252-3.06-1.581-4.761c-0.267-1.323-0.369-2.689-0.234-4.034c0.108-1.098,0.385-2.182,0.797-3.204
			c0.365-0.898,0.859-1.758,1.524-2.469c0.789-0.846,1.714-1.375,2.776-1.679c3.604-1.003,7.434-0.814,11.137-0.752
			c2.775-0.004,5.629-0.095,8.305-0.895c4.121-1.294,10.404-3.703,14.511-5.11c2.469-0.816,5.018-1.514,7.596-1.883
			c1.205-0.168,2.451-0.27,3.667-0.234c3.005,0.198,6.818,0.486,9.835,0.594c2.438,0.117,5.657,0.062,8.036,0.679
			c1.141,0.28,2.362,0.749,3.212,1.542c0.076,0.073,0.113,0.11,0.113,0.11c0.072,0.075,0.107,0.113,0.107,0.113
			c0.445,0.494,0.664,0.994,0.918,1.573c0.234,0.553,0.416,1.262,0.434,1.822c0.037,0.741-0.149,1.446-0.487,2.026
			c-0.038,0.062-0.057,0.092-0.057,0.092c-0.041,0.061-0.063,0.091-0.063,0.091c-0.045,0.06-0.068,0.09-0.068,0.09
			c-0.049,0.06-0.074,0.089-0.074,0.089c-0.052,0.059-0.08,0.088-0.08,0.088c-0.056,0.058-0.085,0.087-0.085,0.087
			c-0.06,0.058-0.091,0.086-0.091,0.086c-0.668,0.596-1.401,0.93-2.209,1.251c-1.227,0.469-2.532,0.783-3.819,1.039
			c-2.361,0.393-4.692,1.067-6.933,1.903c-4.321,1.614-8.567,3.708-12.611,5.922c-2.713,1.515-5.425,3.184-7.871,5.102
			c-1.498,1.186-2.97,2.499-4.163,3.993c-1.481,1.962-2.438,4.286-3.314,6.567c-1.979,5.36-3.363,11.107-4.606,16.679"/>
	</g>
	<g id="POLYLINE_104_">
		
			<path fill="none" stroke="#FF6B6B" stroke-width="2.75" stroke-linecap="round" stroke-linejoin="round" stroke-miterlimit="10" d="
			M687.241,452.511c-3.676,1.187-7.505,1.96-11.353,2.292c-1.334,0.115-2.73,0.182-4.069,0.194
			c-12.935-0.039-35.239,0.094-48.181-0.056c-1.647-0.066-3.375-0.168-5.003-0.437c-0.873-0.153-1.831-0.348-2.6-0.772
			c-0.077-0.046-0.114-0.069-0.114-0.069c-0.07-0.047-0.087-0.059-0.087-0.059c-0.065-0.048-0.081-0.06-0.081-0.06
			c-0.074-0.061-0.088-0.074-0.088-0.074c-0.066-0.063-0.079-0.075-0.079-0.075c-0.069-0.077-0.091-0.103-0.091-0.103
			c-0.042-0.052-0.063-0.079-0.063-0.079c-0.039-0.053-0.058-0.08-0.058-0.08c-0.037-0.054-0.054-0.081-0.054-0.081
			c-0.034-0.054-0.05-0.082-0.05-0.082c-0.031-0.055-0.046-0.083-0.046-0.083c-0.028-0.056-0.041-0.084-0.041-0.084
			c-0.025-0.056-0.037-0.085-0.037-0.085c-0.023-0.057-0.033-0.086-0.033-0.086c-0.02-0.058-0.029-0.087-0.029-0.087
			c-0.017-0.058-0.025-0.088-0.025-0.088c-0.014-0.059-0.02-0.089-0.02-0.089c-0.011-0.06-0.016-0.089-0.016-0.089
			c-0.008-0.06-0.012-0.09-0.012-0.09c-0.006-0.061-0.008-0.091-0.008-0.091c-0.003-0.061-0.004-0.092-0.004-0.092
			c0-0.062,0.001-0.093,0.001-0.093c0.003-0.063,0.005-0.094,0.005-0.094c0.006-0.063,0.009-0.095,0.009-0.095
			c0.008-0.064,0.013-0.096,0.013-0.096c0.011-0.065,0.018-0.097,0.018-0.097c0.014-0.065,0.022-0.098,0.022-0.098
			c0.017-0.066,0.026-0.099,0.026-0.099c0.02-0.067,0.03-0.1,0.03-0.1c0.285-0.837,0.824-1.5,1.375-2.092
			c7.735-8.013,17.103-16.618,24.478-24.926c4.128-4.738,8.663-9.547,10.946-15.498c0.712-1.838,1.209-3.776,1.398-5.74
			c0.184-1.85,0.055-3.756-0.121-5.604c-1.168-10.481-4.06-21.178-6.502-31.431c-2.416-10.363-4.698-21.183-5.615-31.787
			c-1.171-11.419-3.608-22.778-7.215-33.676c-1.267-3.816-2.756-7.755-4.362-11.442c-2.31-5.235-5.154-10.94-7.108-16.318
			c-0.843-2.52-1.182-5.248-1.591-7.863c-0.712-5.122-1.729-14.503-2.361-19.659c-0.963-7.632-2.668-19.996-3.425-27.628
			c-0.862-7.755-1.084-16.688-1.695-24.44c-0.017-0.078-0.023-0.103-0.023-0.103c-0.02-0.076-0.027-0.101-0.027-0.101
			c-0.022-0.074-0.03-0.099-0.03-0.099c-0.025-0.073-0.034-0.096-0.034-0.096c-0.027-0.071-0.037-0.094-0.037-0.094
			c-0.03-0.069-0.04-0.092-0.04-0.092c-0.033-0.067-0.044-0.09-0.044-0.09c-0.035-0.066-0.047-0.087-0.047-0.087
			c-0.038-0.064-0.051-0.085-0.051-0.085c-0.04-0.062-0.054-0.083-0.054-0.083c-0.043-0.061-0.058-0.08-0.058-0.08
			c-0.046-0.059-0.061-0.078-0.061-0.078c-0.065-0.076-0.081-0.095-0.081-0.095c-0.069-0.073-0.087-0.091-0.087-0.091
			c-0.073-0.07-0.092-0.087-0.092-0.087c-0.078-0.067-0.098-0.084-0.098-0.084c-0.061-0.049-0.082-0.064-0.082-0.064
			c-0.064-0.047-0.085-0.062-0.085-0.062c-0.566-0.396-1.213-0.566-1.825-0.692c-0.629-0.127-1.306-0.205-1.946-0.265
			c-2.703-0.243-7.097-0.183-9.857-0.24c-1.95-0.024-6.158-0.202-8.057-0.111c-1.255,0.073-2.677,0.157-3.811,0.699
			c-0.078,0.042-0.103,0.056-0.103,0.056c-0.075,0.045-0.099,0.061-0.099,0.061c-0.072,0.05-0.096,0.067-0.096,0.067
			c-0.07,0.054-0.093,0.073-0.093,0.073c-0.068,0.059-0.09,0.079-0.09,0.079c-0.065,0.063-0.086,0.085-0.086,0.085
			c-0.063,0.068-0.083,0.092-0.083,0.092c-0.06,0.073-0.08,0.098-0.08,0.098c-0.058,0.077-0.077,0.104-0.077,0.104
			c-0.548,0.823-0.705,1.715-0.817,2.654c-0.056,0.521-0.077,1.094-0.078,1.62c0.062,14.138-0.223,42.088,0.363,55.744
			c0.191,4.297,0.461,8.906,0.971,13.165c0.273,2.193,0.602,4.433,1.169,6.567c1.274,4.502,2.795,9.036,4.671,13.32
			c0.65,1.527,1.475,3.053,2.091,4.589c0.674,1.661,1.219,3.409,1.611,5.158c0.743,3.222,0.909,6.584,0.831,9.882
			c-0.111,5.515-0.739,11.341-1.453,16.816c-2.063,15.233-2.685,31.525-4.193,46.817c-0.599,5.877-1.475,12.871-2.362,18.711
			c-0.773,4.846-1.683,10.296-2.162,15.17c-0.557,5.577-0.838,11.321-0.431,16.916c0.356,4.432,1.035,8.898,2.372,13.147
			c0.552,1.711,1.233,3.427,2.104,5.003c0.594,1.117,1.359,2.141,2.096,3.158c1.903,2.573,4.042,5.062,6.385,7.246
			c0.477,0.427,1.015,0.945,1.517,1.334c0.436,0.339,0.915,0.658,1.393,0.934c1.566,0.907,3.292,1.53,5.028,2.023
			c2.693,0.752,5.504,1.195,8.281,1.498"/>
	</g>
	<g id="POLYLINE_103_">
		
			<path fill="none" stroke="#FF6B6B" stroke-width="2.75" stroke-linecap="round" stroke-linejoin="round" stroke-miterlimit="10" d="
			M695.249,391.571c1.775-0.637,3.923-1.482,5.752-1.823c1.894-0.383,3.903-0.467,5.832-0.533
			c4.857-0.161,10.627,0.002,15.345-1.096c3.32-0.75,6.687-2.506,9.854-3.721c1.518-0.579,3.108-1.046,4.703-1.358
			c6.259-1.194,12.833-0.842,18.965,0.864c6.283,1.782,12.055,5.176,16.959,9.457"/>
	</g>
	<g id="POLYLINE_102_">
		
			<path fill="none" stroke="#FF6B6B" stroke-width="2.75" stroke-linecap="round" stroke-linejoin="round" stroke-miterlimit="10" d="
			M794.764,450.908c4.025,1.103,8.342,2.275,12.421,3.069c2.515,0.48,5.101,0.932,7.66,1.014c16.083-0.1,35.742,0.448,51.616-1.145
			c3.86-0.488,7.806-1.259,11.24-3.165c1.54-0.852,2.862-2.056,4.025-3.367c1.063-1.207,1.968-2.566,2.62-4.038
			c0.595-1.327,0.967-2.755,1.146-4.197c0.371-2.936,0.373-6.005,0.341-8.962c-0.113-4.799-0.335-9.989-0.868-14.756
			c-0.471-3.901-1.091-7.875-2.547-11.544c-1.013-2.379-2.355-4.669-3.936-6.716c-1.207-1.518-2.575-2.969-4.212-4.027
			c-1.272-0.809-2.685-1.392-4.119-1.845c-2.204-0.687-4.517-1.085-6.808-1.342"/>
	</g>
	<g id="POLYLINE_101_">
		
			<path fill="none" stroke="#FF6B6B" stroke-width="2.75" stroke-linecap="round" stroke-linejoin="round" stroke-miterlimit="10" d="
			M801.095,430.894c2.109-0.591,4.284-1.142,6.471-1.318c3.478-0.278,7.024,0.078,10.472,0.546c2.568,0.339,6.158,1.098,8.726,1.635
			c1.025,0.2,2.124,0.397,3.162,0.497c1.182,0.114,2.395,0.124,3.555-0.156c1.693-0.397,3.195-1.345,4.6-2.336"/>
	</g>
	<g id="POLYLINE_100_">
		
			<path fill="none" stroke="#FF6B6B" stroke-width="2.75" stroke-linecap="round" stroke-linejoin="round" stroke-miterlimit="10" d="
			M777.948,453.703c1.942,0.83,4.043,1.403,6.17,1.321c2.4-0.097,4.699-0.969,6.847-1.992c2.917-1.427,5.888-3.137,7.724-5.902
			c1.265-1.894,1.999-4.101,2.438-6.323c0.693-3.657,0.621-7.484-0.303-11.093c-0.992-3.932-3.097-7.513-5.798-10.515
			c-2.617-2.941-5.709-5.518-8.82-7.921c-6.696-5.184-18.252-12.53-24.608-18.074c-1.217-1.111-2.611-2.364-3.41-3.789
			c-0.076-0.146-0.125-0.26-0.16-0.354c-0.02-0.056-0.03-0.084-0.03-0.084c-0.017-0.055-0.025-0.082-0.025-0.082
			c-0.014-0.053-0.021-0.08-0.021-0.08c-0.016-0.078-0.019-0.091-0.019-0.091c-0.011-0.075-0.013-0.088-0.013-0.088
			c-0.006-0.073-0.006-0.085-0.006-0.085c0-0.07,0-0.082,0-0.082c0.005-0.068,0.006-0.079,0.006-0.079
			c0.013-0.076,0.015-0.086,0.015-0.086c0.021-0.072,0.024-0.082,0.024-0.082c0.028-0.069,0.033-0.078,0.033-0.078
			c0.042-0.074,0.048-0.083,0.048-0.083c0.052-0.068,0.06-0.078,0.06-0.078c0.075-0.075,0.085-0.084,0.085-0.084
			c0.077-0.06,0.089-0.068,0.089-0.068c0.074-0.047,0.088-0.055,0.088-0.055c0.068-0.036,0.082-0.043,0.082-0.043
			c0.073-0.033,0.088-0.04,0.088-0.04c0.062-0.025,0.095-0.036,0.095-0.036c0.066-0.022,0.101-0.033,0.101-0.033
			c0.07-0.02,0.106-0.029,0.106-0.029c0.074-0.018,0.112-0.026,0.112-0.026c0.846-0.161,1.659-0.076,2.493,0.056
			c1.201,0.205,2.386,0.576,3.508,1.049c5.017,2.19,9.422,6.139,13.907,9.217c2.456,1.67,5.087,3.219,7.982,3.973
			c1.215,0.317,2.483,0.454,3.737,0.47c2.781,0.007,7.525-0.409,10.312-0.588c2.014-0.175,4.113-0.38,6.088-0.818
			c1.556-0.345,3.281-0.915,4.118-2.325c0.874-1.449,1.161-3.477,1.586-5.092c0.496-2.027,1.126-4.088,2.342-5.809
			c0.675-0.947,1.595-1.792,2.713-1.99c0.648-0.114,1.227-0.05,1.86,0.036c0.893,0.125,1.913,0.384,2.808,0.287
			c0.073-0.009,0.11-0.015,0.11-0.015c0.072-0.012,0.108-0.019,0.108-0.019c0.071-0.015,0.106-0.023,0.106-0.023
			c0.07-0.018,0.104-0.028,0.104-0.028c0.054-0.017,0.081-0.026,0.081-0.026c0.053-0.019,0.079-0.028,0.079-0.028
			c0.078-0.031,0.104-0.042,0.104-0.042c0.076-0.035,0.102-0.047,0.102-0.047c0.075-0.038,0.099-0.051,0.099-0.051
			c0.349-0.191,0.596-0.396,0.856-0.623c0.153-0.138,0.682-0.627,0.815-0.728c0.073-0.057,0.11-0.085,0.11-0.085
			c0.073-0.052,0.091-0.064,0.091-0.064c0.073-0.047,0.091-0.058,0.091-0.058c0.072-0.041,0.09-0.051,0.09-0.051
			c0.072-0.035,0.09-0.043,0.09-0.043c0.072-0.028,0.085-0.033,0.085-0.033c0.077-0.023,0.09-0.026,0.09-0.026
			c0.077-0.016,0.09-0.018,0.09-0.018c0.077-0.01,0.09-0.011,0.09-0.011c0.077-0.005,0.103-0.005,0.103-0.005
			c0.078,0.001,0.103,0.002,0.103,0.002c0.078,0.005,0.103,0.008,0.103,0.008c0.204,0.021,0.499,0.08,0.648,0.098
			c0.078,0.009,0.104,0.011,0.104,0.011c0.078,0.005,0.104,0.006,0.104,0.006c0.078,0.001,0.104,0,0.104,0
			c0.078-0.004,0.091-0.005,0.091-0.005c0.074-0.009,0.09-0.012,0.09-0.012c0.077-0.014,0.092-0.018,0.092-0.018
			c0.077-0.019,0.108-0.028,0.108-0.028c0.062-0.019,0.093-0.029,0.093-0.029c0.174-0.055,0.597-0.241,0.713-0.287
			c0.183-0.074,0.347-0.128,0.465-0.16c0.076-0.019,0.114-0.028,0.114-0.028c0.119-0.025,0.139-0.027,0.196-0.036
			c0.061-0.008,0.081-0.01,0.081-0.01c0.062-0.006,0.082-0.007,0.082-0.007c0.063-0.004,0.084-0.004,0.084-0.004
			c0.064-0.001,0.085-0.001,0.085-0.001c0.072,0.001,0.1,0.003,0.1,0.003c0.438,0.026,0.815,0.141,1.182,0.253
			c0,0,1.047,0.346,1.047,0.346c0.351,0.112,0.766,0.224,1.088,0.244c0.055,0.003,0.082,0.004,0.082,0.004
			c0.054,0.001,0.08,0.001,0.08,0.001c0.052-0.001,0.078-0.003,0.078-0.003c0.076-0.007,0.089-0.008,0.089-0.008
			c0.074-0.011,0.086-0.013,0.086-0.013c0.071-0.016,0.083-0.019,0.083-0.019c0.072-0.022,0.082-0.026,0.082-0.026
			c0.078-0.031,0.087-0.035,0.087-0.035c0.074-0.038,0.083-0.043,0.083-0.043c0.062-0.038,0.08-0.049,0.08-0.049
			c0.068-0.049,0.085-0.062,0.085-0.062c0.065-0.055,0.081-0.07,0.081-0.07c0.078-0.077,0.093-0.093,0.093-0.093
			c0.06-0.067,0.074-0.084,0.074-0.084c0.057-0.072,0.072-0.09,0.072-0.09c0.607-0.857,0.883-1.911,1.623-2.669
			c0.074-0.077,0.111-0.115,0.111-0.115c0.569-0.571,1.283-0.934,2.036-1c0.797-0.069,1.571,0.167,2.226,0.477
			c1.036,0.497,1.846,1.203,2.571,2l1.337,1.521c0.678,0.762,1.517,1.534,2.419,1.9c0.793,0.336,1.657,0.48,2.512,0.542
			c1.436,0.113,3.085-0.072,4.525-0.029c0.696,0.024,1.4,0.12,2.08,0.271c1.395,0.313,2.773,0.821,4.093,1.368
			c1.762,0.743,3.51,1.627,5.125,2.652c1.126,0.72,2.222,1.526,3.172,2.469c0.666,0.663,1.299,1.447,1.682,2.303
			c0.872,1.936,0.402,3.987-0.193,5.899c-0.211,0.661-0.852,2.552-1.022,3.18c-0.243,0.847-0.67,2.603-0.916,3.457
			c-0.22,0.748-0.478,1.502-0.846,2.191c-0.36,0.683-0.851,1.292-1.435,1.716c-0.866,0.636-1.911,0.955-2.92,1.039
			c-1.128,0.092-2.255-0.114-3.219-0.591c-0.623-0.311-1.077-0.673-1.559-1.13c-0.867-0.796-1.649-1.994-2.523-2.757
			c-0.053-0.042-0.079-0.061-0.079-0.061c-0.052-0.037-0.078-0.055-0.078-0.055c-0.077-0.048-0.09-0.055-0.09-0.055
			c-0.076-0.04-0.088-0.046-0.088-0.046c-0.075-0.031-0.087-0.036-0.087-0.036c-0.074-0.022-0.086-0.025-0.086-0.025
			c-0.073-0.013-0.085-0.014-0.085-0.014c-0.072-0.003-0.084-0.002-0.084-0.002c-0.072,0.008-0.084,0.01-0.084,0.01
			c-0.071,0.018-0.083,0.022-0.083,0.022c-0.071,0.028-0.082,0.033-0.082,0.033c-0.07,0.037-0.082,0.044-0.082,0.044
			c-0.07,0.046-0.081,0.055-0.081,0.055c-0.07,0.055-0.081,0.065-0.081,0.065c-0.07,0.063-0.093,0.086-0.093,0.086
			c-0.07,0.072-0.094,0.097-0.094,0.097c-0.205,0.229-0.318,0.396-0.462,0.598c-0.69,1.024-1.443,2.205-2.409,2.978
			c-0.831,0.678-1.715,1.03-2.69,1.331c-1.272,0.385-2.889,0.646-4.201,0.905c-0.771,0.161-1.667,0.359-2.349,0.716
			c-0.078,0.042-0.103,0.057-0.103,0.057c-0.074,0.044-0.098,0.059-0.098,0.059c-0.07,0.046-0.093,0.061-0.093,0.061
			c-0.066,0.048-0.088,0.064-0.088,0.064c-0.062,0.05-0.083,0.066-0.083,0.066c-0.077,0.069-0.095,0.087-0.095,0.087
			c-0.07,0.073-0.087,0.091-0.087,0.091c-0.063,0.076-0.078,0.096-0.078,0.096c-0.047,0.067-0.057,0.083-0.057,0.083
			c-0.039,0.065-0.048,0.082-0.048,0.082c-0.035,0.068-0.043,0.085-0.043,0.085c-0.03,0.07-0.037,0.088-0.037,0.088
			c-0.026,0.072-0.032,0.09-0.032,0.09c-0.022,0.074-0.027,0.093-0.027,0.093c-0.018,0.076-0.022,0.096-0.022,0.096
			c-0.01,0.058-0.014,0.078-0.014,0.078c-0.008,0.06-0.011,0.08-0.011,0.08c-0.006,0.061-0.008,0.081-0.008,0.081
			c-0.032,0.511,0.079,0.963,0.214,1.411c0.163,0.521,0.389,1.041,0.621,1.535c0.44,0.934,1.069,2.064,1.476,3.011
			c0.334,0.769,0.608,1.652,0.575,2.447c-0.024,1.026-0.544,1.971-1.138,2.688c-0.702,0.83-1.484,1.401-2.44,1.785
			c-1.31,0.528-2.742,0.396-4.009-0.014c-1.349-0.436-2.592-1.166-3.713-2.027c-1.328-1.027-2.502-2.261-3.458-3.641
			c-0.505-0.734-0.956-1.518-1.284-2.347c-0.277-0.707-0.485-1.514-0.398-2.24c0.009-0.065,0.012-0.086,0.012-0.086
			c0.011-0.063,0.015-0.084,0.015-0.084c0.013-0.062,0.018-0.083,0.018-0.083c0.015-0.061,0.021-0.081,0.021-0.081
			c0.018-0.059,0.024-0.079,0.024-0.079c0.027-0.077,0.036-0.103,0.036-0.103c0.031-0.075,0.042-0.099,0.042-0.099
			c0.034-0.072,0.047-0.096,0.047-0.096c0.038-0.07,0.051-0.093,0.051-0.093c0.041-0.068,0.056-0.09,0.056-0.09
			c0.045-0.066,0.06-0.087,0.06-0.087c0.048-0.064,0.064-0.084,0.064-0.084c0.051-0.061,0.068-0.082,0.068-0.082
			c0.053-0.06,0.072-0.079,0.072-0.079c0.075-0.077,0.094-0.095,0.094-0.095c0.467-0.438,0.937-0.676,1.475-0.942l0.597-0.28"/>
	</g>
	<g id="POLYLINE_99_">
		
			<path fill="none" stroke="#FF6B6B" stroke-width="2.75" stroke-linecap="round" stroke-linejoin="round" stroke-miterlimit="10" d="
			M751.106,417.017c1.933-2.597,4.215-4.959,6.812-6.897c1.179-0.885,2.437-1.695,3.789-2.289c1.479-0.659,3.065-1.087,4.676-1.251
			c1.232-0.119,2.492-0.136,3.712,0.095c3.164,0.62,5.966,2.407,8.495,4.337c7.389,5.846,14.483,14.183,14.893,24.009
			c0.069,1.843-0.135,3.706-0.535,5.505c-0.461,2.039-1.254,4.036-2.526,5.709c-0.557,0.745-1.237,1.41-1.936,2.022
			c-1.178,1.028-2.49,1.926-3.851,2.693c-2.589,1.448-5.395,2.554-8.308,3.134c-1.999,0.412-4.065,0.652-6.1,0.784
			c-2.397,0.212-26.175,0.12-29.175,0.133c-7.908-0.085-35.853,0.231-43.322-0.267c-2.151-0.145-4.435-0.314-6.556-0.715
			c-0.904-0.167-1.885-0.406-2.706-0.773c-0.061-0.029-0.12-0.058-0.12-0.058c-0.058-0.029-0.114-0.058-0.114-0.058
			c-0.054-0.03-0.161-0.09-0.161-0.09c-0.128-0.079-0.298-0.17-0.423-0.255c-0.352-0.225-0.704-0.477-1.029-0.74
			c-1.376-1.111-2.498-2.516-3.437-4.007c-2.032-3.387-3.758-7.463-5.394-11.068c-2.19-4.972-4.352-10.323-5.843-15.542
			c-1.247-4.154-1.997-8.58-3.398-12.689c-0.273-0.741-0.553-1.554-0.959-2.223c-1.196-1.718-2.721-3.224-4.178-4.715
			c-0.809-0.808-1.511-1.738-2.001-2.774c-0.35-0.739-0.591-1.534-0.704-2.344c-0.098-0.669-0.095-1.36-0.06-2.034
			c0.068-1.222,0.315-2.61,1.038-3.589c0.059-0.078,0.079-0.103,0.079-0.103c0.061-0.075,0.082-0.099,0.082-0.099
			c0.063-0.072,0.085-0.095,0.085-0.095c0.066-0.069,0.088-0.091,0.088-0.091c0.068-0.065,0.091-0.087,0.091-0.087
			c0.62-0.535,1.265-0.789,1.987-1.085c1.169-0.451,2.436-0.792,3.654-1.091c2.227-0.539,4.523-0.97,6.806-1.172
			c3.439-0.322,6.957-0.231,10.392,0.122c2.056,0.214,4.186,0.478,6.196,0.967c1.162,0.299,2.484,0.677,3.366,1.5
			c0.074,0.073,0.098,0.097,0.098,0.097c0.069,0.074,0.091,0.099,0.091,0.099c0.064,0.075,0.084,0.101,0.084,0.101
			c0.059,0.077,0.077,0.103,0.077,0.103c0.036,0.052,0.053,0.078,0.053,0.078c0.033,0.053,0.049,0.079,0.049,0.079
			c0.031,0.053,0.046,0.08,0.046,0.08c0.028,0.054,0.042,0.081,0.042,0.081c0.026,0.055,0.038,0.082,0.038,0.082
			c0.023,0.055,0.034,0.083,0.034,0.083c0.02,0.056,0.03,0.084,0.03,0.084c0.018,0.057,0.026,0.086,0.026,0.086
			c0.015,0.058,0.022,0.087,0.022,0.087c0.013,0.058,0.018,0.088,0.018,0.088c0.01,0.059,0.014,0.089,0.014,0.089
			c0.007,0.06,0.01,0.09,0.01,0.09c0.005,0.06,0.006,0.091,0.006,0.091c0.002,0.061,0.003,0.092,0.003,0.092
			c-0.001,0.062-0.001,0.093-0.001,0.093c-0.003,0.063-0.005,0.094-0.005,0.094c-0.006,0.063-0.009,0.095-0.009,0.095
			c-0.008,0.064-0.013,0.096-0.013,0.096c-0.011,0.065-0.017,0.097-0.017,0.097c-0.014,0.065-0.021,0.098-0.021,0.098
			c-0.23,0.894-0.731,1.539-1.199,2.279c-0.869,1.288-1.901,2.564-2.91,3.749c-0.992,1.141-2.067,2.339-2.942,3.569
			c-0.476,0.675-1.002,1.473-1.234,2.238c-0.021,0.077-0.028,0.102-0.028,0.102c-0.017,0.075-0.023,0.1-0.023,0.1
			c-0.014,0.076-0.019,0.102-0.019,0.102c-0.089,0.548,0.006,1.104,0.121,1.579c0.174,0.674,0.39,1.195,0.667,1.798
			c0.408,0.876,0.999,1.87,1.481,2.713c1.389,2.365,3.106,5.108,4.618,7.399c3.153,4.704,7.007,9.626,10.535,14.07
			c1.351,1.638,2.853,3.632,4.371,5.1c0.059,0.049,0.079,0.065,0.079,0.065c0.061,0.047,0.082,0.063,0.082,0.063
			c0.063,0.045,0.084,0.06,0.084,0.06c0.902,0.609,1.997,0.691,3.001,0.659c2.625-0.117,5.08-1.28,7.37-2.482
			c7.43-3.749,15.811-6.093,23.299-9.708c1.039-0.533,2.162-1.097,3.038-1.868C747.634,421.624,749.396,419.269,751.106,417.017z"/>
	</g>
	<g id="POLYLINE_98_">
		
			<path fill="none" stroke="#FF6B6B" stroke-width="2.75" stroke-linecap="round" stroke-linejoin="round" stroke-miterlimit="10" d="
			M106.955,206.331l0.864-8.375c0.494-4.63,2.007-10.221,2.993-14.797c0.571-2.802,1.057-5.685,0.997-8.552
			c-0.057-3.213-1.022-6.375-2.621-9.153c-0.781-1.372-1.725-2.679-2.733-3.893c-1.174-1.429-2.675-3.01-3.544-4.643
			c-0.739-1.349-1.06-2.912-0.96-4.445c0.075-1.266,0.455-2.582,1.103-3.662c0.569-0.959,1.296-1.671,2.163-2.282
			c1.763-1.248,4.144-2.075,6.127-2.924c1.635-0.686,3.243-1.513,4.665-2.578c1.198-0.89,2.278-1.955,3.204-3.124
			c0.989-1.242,1.836-2.654,2.619-4.033c1.913-3.439,4.067-7.738,6.455-10.828c1.61-2.125,3.52-4.047,5.564-5.755
			c4.033-3.327,8.644-6.03,13.584-7.759c1.149-0.384,2.342-0.715,3.549-0.848c0.884-0.095,1.873-0.083,2.662,0.268
			c0.067,0.031,0.089,0.042,0.089,0.042c0.065,0.033,0.087,0.044,0.087,0.044c0.064,0.035,0.084,0.047,0.084,0.047
			c0.062,0.037,0.082,0.05,0.082,0.05c0.055,0.036,0.082,0.055,0.082,0.055c0.053,0.038,0.079,0.058,0.079,0.058
			c0.077,0.06,0.101,0.081,0.101,0.081c0.073,0.064,0.097,0.086,0.097,0.086c0.07,0.068,0.092,0.091,0.092,0.091
			c0.066,0.071,0.088,0.095,0.088,0.095c0.063,0.074,0.083,0.1,0.083,0.1c0.748,0.982,0.872,2.187,0.895,3.327
			c0.006,1.07-0.15,2.149-0.524,3.153c-0.492,1.361-1.398,2.527-2.44,3.516c-1.874,1.778-4.119,3.45-5.804,5.417
			c-1.443,1.626-2.521,3.554-3.302,5.576c-0.94,2.399-1.568,4.982-2.101,7.501c-0.813,4.026-1.803,10.024-2.803,13.977
			c-1.566,6.348-3.794,13.927-4.793,20.366c-1.82,11.561-2.448,23.423-1.341,35.087"/>
	</g>
	<g id="POLYLINE_97_">
		
			<path fill="none" stroke="#FF6B6B" stroke-width="2.75" stroke-linecap="round" stroke-linejoin="round" stroke-miterlimit="10" d="
			M198.636,394.805c3.547-0.911,7.149-2.065,10.133-4.25c2.769-2.024,5.213-4.96,7.802-7.199c1.245-1.089,2.608-2.066,4.066-2.848
			c3.181-1.721,6.729-2.693,10.265-3.367"/>
	</g>
	<g id="POLYLINE_96_">
		
			<path fill="none" stroke="#FF6B6B" stroke-width="2.75" stroke-linecap="round" stroke-linejoin="round" stroke-miterlimit="10" d="
			M192.549,438.145c3.44-6.957,5.75-14.511,6.936-22.176c0.691-4.476,1.149-9.073,0.947-13.604c-0.086-1.651-0.26-3.326-0.686-4.926
			c-0.216-0.8-0.507-1.591-0.917-2.313c-0.4-0.717-0.983-1.407-1.593-1.892c-1.526-1.224-3.456-1.699-5.344-2.024
			c-4.11-0.674-8.998-0.538-13.175-0.619c-1.519-0.055-3.122-0.097-4.538-0.703c-0.878-0.37-1.568-1.036-2.029-1.784
			c-0.787-1.279-1.174-2.714-1.558-4.148c-3.794-17.325-11.637-44.332-14.901-61.705c-1.211-6.353-2.62-16.052-3.95-22.362
			c-0.919-4.418-2.252-9.065-3.607-13.373c0,0-5.366-16.361-5.366-16.361c-2.844-8.896-5.009-18.13-5.986-27.425
			c-0.888-7.82-1.274-17.226-1.768-25.105c-0.124-1.59-0.28-3.285-0.567-4.852c-0.417-2.23-1.116-4.849-3.16-6.085
			c-1.091-0.669-2.274-0.927-3.509-1.122c-2.141-0.306-4.616-0.405-6.781-0.52c-3.538-0.128-7.183-0.196-10.692,0.329
			c-1.38,0.236-2.927,0.543-4.054,1.403c-0.076,0.061-0.113,0.093-0.113,0.093c-0.072,0.063-0.108,0.095-0.108,0.095
			c-0.069,0.065-0.102,0.098-0.102,0.098c-0.065,0.067-0.097,0.102-0.097,0.102c-0.062,0.069-0.092,0.105-0.092,0.105
			c-0.059,0.072-0.087,0.108-0.087,0.108c-0.056,0.074-0.083,0.111-0.083,0.111c-0.716,1.038-0.845,2.26-1.004,3.465
			c-0.916,8.783-2.045,18.644-2.274,27.431c-0.124,4.704-0.027,9.503,0.687,14.161c0.754,5.394,2.743,11.761,4.099,17.054
			c0.899,3.562,1.623,7.391,2.114,11.031c0.77,5.76,1.085,11.727,0.884,17.535c-0.232,8.571-2.607,24.026-3.632,32.66
			c-2.333,19.12-3.412,63.655-4.413,83.503c-0.09,2.971-0.154,6.277-0.015,9.236c0.176,3.815,0.625,7.682,1.8,11.328
			c1.321,4.154,3.748,7.931,6.88,10.953c2.826,2.734,6.213,4.901,9.884,6.31c3.332,1.283,6.898,1.939,10.446,2.255
			c8.208,0.64,16.724,0.224,24.938-0.281"/>
	</g>
	<g id="POLYLINE_95_">
		
			<path fill="none" stroke="#FF6B6B" stroke-width="2.75" stroke-linecap="round" stroke-linejoin="round" stroke-miterlimit="10" d="
			M309.571,403.356c3.431,0.239,6.864-0.523,10.105-1.597c1.226-0.419,2.506-0.898,3.678-1.451c0.871-0.418,1.725-0.912,2.439-1.568
			c1.884-1.675,2.116-4.212,2.267-6.553l0.182-4.395c0.078-1.324,0.217-2.672,0.582-3.951c0.205-0.716,0.479-1.424,0.882-2.054
			c0.214-0.332,0.436-0.596,0.661-0.808c0.061-0.056,0.092-0.083,0.092-0.083c0.062-0.053,0.094-0.079,0.094-0.079
			c0.064-0.05,0.096-0.075,0.096-0.075c0.065-0.047,0.098-0.07,0.098-0.07c0.067-0.044,0.1-0.066,0.1-0.066
			c0.068-0.041,0.102-0.061,0.102-0.061c0.069-0.038,0.104-0.057,0.104-0.057c0.071-0.035,0.107-0.052,0.107-0.052
			c0.072-0.032,0.109-0.048,0.109-0.048c0.072-0.028,0.108-0.042,0.108-0.042c0.072-0.025,0.108-0.037,0.108-0.037
			c0.073-0.022,0.11-0.033,0.11-0.033c1.343-0.34,2.803,0.036,4.163,0.062c0.516,0.018,1.04-0.005,1.549-0.098
			c1.416-0.225,2.95-1.066,4.38-1.074c0.072,0.002,0.108,0.003,0.108,0.003c0.071,0.004,0.107,0.007,0.107,0.007
			c1.014,0.093,1.786,0.728,2.697,1.054c0.066,0.021,0.087,0.028,0.087,0.028c0.065,0.018,0.086,0.024,0.086,0.024
			c0.064,0.015,0.085,0.019,0.085,0.019c0.063,0.012,0.085,0.015,0.085,0.015c0.063,0.008,0.084,0.01,0.084,0.01
			c0.062,0.004,0.083,0.005,0.083,0.005c0.066,0,0.083-0.001,0.083-0.001c0.066-0.004,0.082-0.006,0.082-0.006
			c0.065-0.008,0.081-0.011,0.081-0.011c0.065-0.012,0.081-0.015,0.081-0.015c0.064-0.015,0.096-0.023,0.096-0.023
			c0.064-0.018,0.095-0.028,0.095-0.028c0.346-0.113,0.713-0.315,1.022-0.413c0.067-0.021,0.1-0.031,0.1-0.031
			c0.068-0.018,0.102-0.026,0.102-0.026c0.069-0.014,0.086-0.018,0.086-0.018c0.07-0.011,0.087-0.013,0.087-0.013
			c0.071-0.008,0.089-0.009,0.089-0.009c0.072-0.004,0.09-0.004,0.09-0.004c0.061,0,0.081,0.001,0.081,0.001
			c0.062,0.003,0.082,0.005,0.082,0.005c0.273,0.026,0.454,0.078,0.685,0.143c0,0,0.611,0.187,0.611,0.187
			c0.154,0.046,0.374,0.101,0.505,0.12c0.061,0.009,0.081,0.011,0.081,0.011c0.06,0.006,0.08,0.008,0.08,0.008
			c0.059,0.003,0.078,0.004,0.078,0.004c0.077,0,0.096-0.001,0.096-0.001c0.075-0.005,0.093-0.008,0.093-0.008
			c0.073-0.011,0.082-0.013,0.082-0.013c0.071-0.017,0.08-0.02,0.08-0.02c0.077-0.027,0.086-0.03,0.086-0.03
			c0.069-0.032,0.078-0.037,0.078-0.037c0.075-0.045,0.085-0.051,0.085-0.051c0.073-0.053,0.082-0.06,0.082-0.06
			c0.07-0.061,0.087-0.077,0.087-0.077c0.068-0.069,0.084-0.087,0.084-0.087c0.066-0.077,0.082-0.097,0.082-0.097
			c0.323-0.411,0.605-1.028,0.851-1.474c0.14-0.259,0.339-0.584,0.491-0.78c0.059-0.077,0.079-0.102,0.079-0.102
			c0.062-0.074,0.082-0.098,0.082-0.098c0.064-0.071,0.086-0.094,0.086-0.094c0.066-0.067,0.089-0.089,0.089-0.089
			c0.068-0.063,0.091-0.083,0.091-0.083c0.07-0.059,0.094-0.078,0.094-0.078c0.073-0.056,0.097-0.074,0.097-0.074
			c0.075-0.052,0.1-0.069,0.1-0.069c1.141-0.74,2.704-0.613,3.707,0.191c0.621,0.502,0.992,1.061,1.405,1.682
			c0.432,0.673,0.98,1.578,1.458,2.205c0.638,0.858,1.367,1.688,2.126,2.441c0.745,0.719,1.555,1.486,2.476,1.96
			c0.864,0.437,1.745,0.533,2.668,0.561c0.714,0.035,3.127-0.046,3.875-0.05c1.441-0.003,2.912,0.059,4.322,0.373
			c1.144,0.255,2.253,0.683,3.293,1.223c1.937,1.009,3.662,2.401,5.223,3.919c1.922,1.862,3.605,3.996,4.875,6.355"/>
	</g>
	<g id="POLYLINE_94_">
		
			<path fill="none" stroke="#FF6B6B" stroke-width="2.75" stroke-linecap="round" stroke-linejoin="round" stroke-miterlimit="10" d="
			M326.322,436.091c0.995-0.238,2.032-0.389,3.049-0.492c1.033-0.108,2.096-0.141,3.133-0.063"/>
	</g>
	<g id="POLYLINE_93_">
		
			<path fill="none" stroke="#FF6B6B" stroke-width="2.75" stroke-linecap="round" stroke-linejoin="round" stroke-miterlimit="10" d="
			M231.081,429.698c-0.678-5.925-1.149-16.535-1.51-22.599c-0.346-6.831-1.747-16.671-0.98-23.405
			c0.269-2.39,0.88-5.012,2.537-6.814c1.933-2.114,4.692-2.928,7.366-3.616c4.269-1.039,8.689-1.637,13.066-1.977
			c9.649-0.694,19.744-0.233,28.636,3.922c5.732,2.634,10.822,6.549,15.4,10.851c7.079,6.746,13.205,14.682,17.275,23.605"/>
	</g>
	<g id="POLYLINE_92_">
		
			<path fill="none" stroke="#FF6B6B" stroke-width="2.75" stroke-linecap="round" stroke-linejoin="round" stroke-miterlimit="10" d="
			M292.478,415.716c0,0-29.524,10.066-29.524,10.066c-0.27,0.088-0.621,0.198-0.892,0.276c-1.034,0.301-2.237,0.565-3.3,0.776
			c-3.421,0.667-7.211,1.103-10.69,1.452c-5.077,0.469-12.987,1.19-17.98,1.475c-4.518,0.339-9.029,1.356-13.392,2.55
			c-5.331,1.514-11.307,3.51-16.683,4.861c-0.909,0.223-1.895,0.467-2.818,0.606c-2.358,0.358-4.809,0.401-7.191,0.373
			c-1.867-0.017-3.841-0.171-5.706-0.202c-1.603-0.021-3.253,0.044-4.848,0.195c-2.045,0.194-4.11,0.539-6.106,1.027
			c-2.296,0.582-4.592,1.359-6.933,1.829c-5.309,1.168-10.855,1.462-16.279,1.476c-1.101-0.005-2.332-0.023-3.432-0.112
			c-0.584-0.047-1.228-0.12-1.785-0.262c-0.07-0.016-0.105-0.023-0.105-0.023c-0.069-0.013-0.103-0.019-0.103-0.019
			c-0.068-0.01-0.101-0.015-0.101-0.015c-0.066-0.007-0.099-0.01-0.099-0.01c-0.065-0.004-0.097-0.006-0.097-0.006
			c-0.064-0.001-0.096-0.001-0.096-0.001c-0.063,0.001-0.094,0.003-0.094,0.003c-0.062,0.004-0.092,0.007-0.092,0.007
			c-0.06,0.007-0.09,0.012-0.09,0.012c-0.059,0.01-0.088,0.016-0.088,0.016c-0.072,0.017-0.087,0.02-0.087,0.02
			c-0.071,0.02-0.085,0.025-0.085,0.025c-0.069,0.024-0.083,0.029-0.083,0.029c-0.068,0.028-0.081,0.034-0.081,0.034
			c-0.066,0.031-0.079,0.038-0.079,0.038c-0.078,0.042-0.09,0.05-0.09,0.05c-0.063,0.039-0.088,0.056-0.088,0.056
			c-0.073,0.053-0.097,0.071-0.097,0.071c-0.071,0.059-0.094,0.079-0.094,0.079c-0.069,0.064-0.091,0.087-0.091,0.087
			c-0.066,0.07-0.088,0.095-0.088,0.095c-0.064,0.076-0.085,0.102-0.085,0.102c-0.041,0.054-0.061,0.082-0.061,0.082
			c-0.04,0.057-0.06,0.086-0.06,0.086c-0.039,0.06-0.058,0.091-0.058,0.091c-0.038,0.063-0.056,0.095-0.056,0.095
			c-0.036,0.066-0.054,0.1-0.054,0.1c-0.035,0.069-0.052,0.104-0.052,0.104c-0.034,0.072-0.051,0.108-0.051,0.108
			c-0.033,0.075-0.049,0.113-0.049,0.113c-0.016,0.039-0.047,0.117-0.047,0.117s-0.03,0.081-0.03,0.081s-0.03,0.082-0.03,0.082
			c-0.116,0.335-0.205,0.688-0.272,1.036c-0.122,0.627-0.176,1.277-0.113,1.915c0.08,1.025,0.557,2.047,1.206,2.759
			c0.315,0.352,0.588,0.582,0.91,0.826c0.357,0.265,0.741,0.505,1.131,0.718c2.016,1.088,4.275,1.717,6.492,2.251
			c4.761,1.125,9.726,1.498,14.605,1.638c6.948,0.147,14.136-0.073,21.045-0.834c4.914-0.625,9.948-0.903,14.871-0.239
			c5.485,0.877,11.295,1.019,16.848,1.105c6.274,0.077,13.055-0.133,19.313-0.602c4.291-0.307,9.197-0.889,13.467-1.309
			c4.502-0.391,9.227-0.523,13.745-0.395c4.54,0.11,9.41,0.605,13.929,1.111c4.188,0.414,9.198,0.797,13.401,0.988
			c2.97,0.124,6.926,0.236,9.899,0.221c1.56-0.015,3.149-0.118,4.694-0.341c3.029-0.437,6.041-1.36,8.617-3.045
			c1.71-1.107,3.188-2.563,4.359-4.228c2.979-4.083,5.284-8.71,6.476-13.633c0.521-2.171,0.88-4.419,0.866-6.656
			c-0.012-1.98-0.33-3.989-1.153-5.801c-1.038-2.233-2.735-4.105-4.606-5.678c-1.312-1.094-2.762-2.068-4.24-2.923
			c-1.374-0.772-2.815-1.517-4.111-2.42c-3.403-2.307-6.317-5.321-8.656-8.694c-1.379-1.975-2.893-3.902-4.635-5.572
			c-1.089-1.036-2.282-1.991-3.614-2.697c-2.388-1.235-5.151-1.759-7.823-1.425c-0.686,0.078-1.449,0.234-2.106,0.425
			c-0.53,0.174-1.041,0.403-1.456,0.648c-1.109,0.638-2.058,1.466-2.956,2.364c-1.165,1.176-2.23,2.51-3.204,3.848
			c-5.395,7.567-9.253,16.217-11.853,25.119"/>
	</g>
	<g id="POLYLINE_91_">
		
			<path fill="none" stroke="#FF6B6B" stroke-width="2.75" stroke-linecap="round" stroke-linejoin="round" stroke-miterlimit="10" d="
			M373.327,453.779c3.809,0.598,7.745,0.939,11.596,1.102c6.946,0.243,29.741,0.087,36.781,0.099
			c4.107-0.071,8.708-0.123,12.777-0.581c0.956-0.121,1.998-0.258,2.91-0.554c0.71-0.244,1.442-0.691,1.95-1.18
			c0.632-0.606,1.005-1.32,1.2-2.095c0.228-0.953,0.239-2.052-0.104-2.953c-0.03-0.074-0.045-0.11-0.045-0.11
			c-0.032-0.072-0.048-0.108-0.048-0.108c-0.034-0.07-0.052-0.105-0.052-0.105c-0.037-0.068-0.056-0.102-0.056-0.102
			c-0.039-0.067-0.059-0.1-0.059-0.1c-0.041-0.065-0.063-0.097-0.063-0.097c-0.044-0.063-0.066-0.094-0.066-0.094
			c-0.046-0.061-0.07-0.092-0.07-0.092c-0.048-0.06-0.073-0.089-0.073-0.089c-0.051-0.058-0.077-0.087-0.077-0.087
			c-0.053-0.056-0.08-0.084-0.08-0.084c-0.055-0.055-0.084-0.081-0.084-0.081c-0.058-0.053-0.087-0.079-0.087-0.079
			c-0.06-0.051-0.091-0.076-0.091-0.076c-0.062-0.049-0.094-0.074-0.094-0.074c-1.029-0.759-2.242-0.875-3.445-1.103
			c-1.81-0.293-3.741-0.445-5.574-0.543c-1.076-0.049-2.334-0.072-3.387-0.258c-1.857-0.298-3.66-0.922-5.33-1.782
			c-1.601-0.797-3.061-1.911-4.502-2.961c-1.746-1.239-3.623-2.428-5.518-3.427c-1.991-1.065-4.142-1.907-6.279-2.63
			c-3.414-1.156-7.228-2.215-10.718-3.13"/>
	</g>
	<g id="POLYLINE_8_">
		
			<path fill="none" stroke="#FF6B6B" stroke-width="2.75" stroke-linecap="round" stroke-linejoin="round" stroke-miterlimit="10" d="
			M352.978,416.297c-0.288,1.567-0.405,3.203-0.045,4.767c0.25,1.114,0.774,2.158,1.472,3.058c0.871,1.129,1.978,2.063,3.162,2.851
			c1.706,1.126,3.601,1.988,5.534,2.641c1.61,0.53,3.289,0.938,4.99,0.979c1.109,0.024,2.391-0.154,3.252-0.834
			c0.077-0.063,0.103-0.084,0.103-0.084c0.07-0.062,0.09-0.081,0.09-0.081c0.059-0.057,0.078-0.076,0.078-0.076
			c0.057-0.059,0.075-0.079,0.075-0.079c0.055-0.061,0.072-0.082,0.072-0.082c0.052-0.064,0.069-0.085,0.069-0.085
			c0.675-0.874,0.856-1.984,0.867-3.007c0.001-1.16-0.23-2.322-0.646-3.404c-0.435-1.156-1.175-2.175-2.058-3.03
			c-0.989-0.966-2.217-1.921-3.143-2.948c-0.68-0.745-1.275-1.573-1.781-2.445c-0.404-0.701-0.758-1.443-1.007-2.214
			c-0.216-0.674-0.363-1.432-0.275-2.098c0.01-0.072,0.014-0.095,0.014-0.095c0.013-0.07,0.018-0.093,0.018-0.093
			c0.015-0.069,0.021-0.091,0.021-0.091c0.018-0.067,0.024-0.089,0.024-0.089c0.02-0.065,0.028-0.087,0.028-0.087
			c0.023-0.064,0.031-0.085,0.031-0.085c0.026-0.062,0.034-0.083,0.034-0.083c0.028-0.06,0.038-0.08,0.038-0.08
			c0.042-0.078,0.052-0.096,0.052-0.096c0.045-0.073,0.057-0.091,0.057-0.091c0.049-0.07,0.062-0.088,0.062-0.088
			c0.054-0.068,0.068-0.084,0.068-0.084c0.058-0.065,0.073-0.081,0.073-0.081c0.078-0.077,0.094-0.092,0.094-0.092
			c0.066-0.059,0.083-0.073,0.083-0.073c0.07-0.056,0.088-0.07,0.088-0.07c0.055-0.041,0.092-0.067,0.092-0.067
			c0.519-0.347,1.016-0.497,1.582-0.639c0.681-0.163,1.42-0.254,2.117-0.33c2.812-0.279,5.964-0.386,8.337-2.096
			c0.843-0.599,1.518-1.407,2.064-2.28c0.649-1.016,1.299-2.362,1.902-3.408c0.388-0.672,0.879-1.429,1.432-1.951
			c0.785-0.765,1.816-1.104,2.822-1.099c0.939,0.004,1.716,0.243,2.547,0.602c2.553,1.171,4.348,3.535,5.513,6.028
			c1.638,3.603,2.287,7.593,2.646,11.509c0.399,5.218,0.271,10.602-1.066,15.684c-0.861,3.243-2.407,6.279-4.293,9.042
			c-1.328,1.942-2.778,3.917-4.314,5.699c-2.514,2.921-5.52,5.51-9.059,7.096c-2.137,0.971-4.453,1.54-6.77,1.873
			c-6.843,0.945-13.872,0.184-20.686-0.692c-2.479-0.356-5.12-0.612-7.431-1.634c-2.867-1.238-4.75-3.915-6.2-6.574
			c-1.068-1.99-1.943-4.105-2.625-6.258c-0.294-0.958-0.553-1.947-0.647-2.946c-0.082-0.813-0.026-1.73,0.297-2.463
			c0.035-0.077,0.053-0.116,0.053-0.116c0.038-0.076,0.057-0.113,0.057-0.113c0.548-1.002,1.474-1.637,2.294-2.347
			c0.846-0.698,1.609-1.495,2.128-2.43c0.903-1.544,1.525-3.439,2.753-4.768c0.907-0.999,2.119-1.46,3.371-1.718
			c1.436-0.291,2.928-0.318,4.388-0.289c0.861,0.025,2.742,0.098,3.616,0.135c0.608,0.033,1.26,0.087,1.863,0.167"/>
	</g>
</g>
<g id="AG-OUTLINE">
	<g id="POLYLINE_7_">
		
			<path fill="none" stroke="#FF6B6B" stroke-width="3.5" stroke-linecap="round" stroke-linejoin="round" stroke-miterlimit="10" d="
			M612.38,191.625c1.244-5.575,2.626-11.318,4.606-16.679c0.877-2.281,1.833-4.605,3.314-6.567c1.204-1.506,2.657-2.799,4.163-3.993
			c2.445-1.918,5.158-3.588,7.871-5.102c4.044-2.214,8.289-4.308,12.611-5.922c2.241-0.836,4.572-1.51,6.933-1.903
			c1.286-0.256,2.592-0.57,3.819-1.039c0.767-0.296,1.615-0.705,2.209-1.251c0.061-0.058,0.091-0.086,0.091-0.086
			c0.057-0.058,0.085-0.087,0.085-0.087c0.054-0.059,0.08-0.088,0.08-0.088c0.05-0.059,0.074-0.089,0.074-0.089
			c0.046-0.06,0.068-0.09,0.068-0.09c0.042-0.061,0.063-0.091,0.063-0.091c0.039-0.061,0.057-0.092,0.057-0.092
			c0.704-1.192,0.57-2.578,0.087-3.766c-0.209-0.507-0.479-1.085-0.818-1.5c-0.065-0.078-0.099-0.117-0.099-0.117
			c-0.069-0.076-0.105-0.114-0.105-0.114c-0.073-0.074-0.111-0.111-0.111-0.111c-0.891-0.839-1.966-1.23-3.099-1.54
			c-2.44-0.654-5.653-0.602-8.187-0.718c-3.03-0.104-6.823-0.397-9.835-0.594c-1.217-0.035-2.462,0.066-3.667,0.234
			c-2.577,0.37-5.126,1.067-7.596,1.883c-4.115,1.411-10.385,3.815-14.511,5.11c-2.675,0.8-5.53,0.891-8.305,0.895
			c-3.703-0.061-7.533-0.25-11.137,0.752c-1.052,0.283-2.074,0.911-2.776,1.679c-0.664,0.711-1.159,1.57-1.524,2.469
			c-0.412,1.022-0.689,2.106-0.797,3.204c-0.135,1.345-0.033,2.711,0.234,4.034c0.329,1.699,0.939,3.173,1.581,4.761
			c0.465,1.211,0.873,2.477,1.198,3.733c0.788,2.981,1.084,6.09,1.03,9.169c-0.051,4.058-0.482,8.341-0.967,12.372
			c-0.689,0.086-1.496,0.235-2.099,0.512c-0.053,0.025-0.079,0.037-0.079,0.037c-0.076,0.038-0.1,0.051-0.1,0.051
			c-0.074,0.042-0.099,0.057-0.099,0.057c-0.073,0.047-0.098,0.064-0.098,0.064c-0.071,0.052-0.094,0.07-0.094,0.07
			c-0.069,0.057-0.091,0.076-0.091,0.076c-0.066,0.061-0.088,0.082-0.088,0.082c-0.064,0.066-0.085,0.089-0.085,0.089
			c-0.062,0.07-0.082,0.095-0.082,0.095c-0.059,0.075-0.078,0.101-0.078,0.101c-0.564,0.8-0.723,1.681-0.844,2.602
			c-0.065,0.555-0.088,1.163-0.089,1.724c0.027,10.75-0.104,39.5,0.161,49.652c0.175,5.904,0.414,12.45,1.06,18.278
			c0.29,2.52,0.634,5.094,1.282,7.546c1.274,4.502,2.795,9.036,4.671,13.32c0.65,1.527,1.475,3.053,2.091,4.589
			c0.674,1.661,1.219,3.409,1.611,5.158c0.743,3.222,0.909,6.584,0.831,9.882c-0.111,5.515-0.739,11.341-1.453,16.816
			c-2.063,15.233-2.685,31.525-4.193,46.817c-0.599,5.877-1.475,12.871-2.362,18.711c-0.773,4.846-1.683,10.296-2.162,15.17
			c-0.582,5.835-0.865,11.836-0.37,17.686c0.517,5.396,1.411,10.882,3.649,15.857c0.364,0.79,0.779,1.585,1.233,2.327
			c0.624,1.035,1.429,2.067,2.142,3.038c1.764,2.319,3.739,4.573,5.872,6.561c0.525,0.467,1.096,1.026,1.659,1.442
			c0.446,0.335,0.935,0.65,1.423,0.924c1.673,0.938,3.514,1.568,5.362,2.063c2.534,0.666,5.173,1.077,7.776,1.36
			c0.038,0.053,0.058,0.079,0.058,0.079c0.062,0.078,0.083,0.104,0.083,0.104c0.069,0.077,0.082,0.09,0.082,0.09
			c0.066,0.063,0.08,0.075,0.08,0.075c0.074,0.061,0.09,0.073,0.09,0.073c0.065,0.048,0.082,0.06,0.082,0.06
			c0.07,0.047,0.107,0.07,0.107,0.07c0.801,0.46,1.632,0.619,2.51,0.789c1.353,0.236,2.766,0.346,4.137,0.42
			c13.152,0.263,35.542,0.027,48.7,0.104c1.511,0,3.076-0.067,4.582-0.197c3.848-0.332,7.678-1.106,11.353-2.292
			c0.344,0.247,0.795,0.521,1.167,0.705c0.596,0.28,1.118,0.422,1.721,0.577c1.174,0.287,2.429,0.464,3.631,0.606
			c2.29,0.262,4.836,0.396,7.145,0.483c17.661,0.289,47.34,0.039,64.961,0.119c4.041-0.013,8.159-0.276,12.082-1.297
			c2.147,0.921,4.501,1.518,6.849,1.275c1.71-0.173,3.37-0.719,4.945-1.389c1.731-0.756,3.442-1.646,5.022-2.681
			c4.025,1.103,8.342,2.275,12.421,3.069c2.515,0.48,5.101,0.932,7.66,1.014c16.083-0.1,35.742,0.448,51.616-1.145
			c3.86-0.488,7.806-1.259,11.24-3.165c1.54-0.852,2.862-2.056,4.025-3.367c1.063-1.207,1.968-2.566,2.62-4.038
			c0.595-1.327,0.967-2.755,1.146-4.197c0.371-2.936,0.373-6.005,0.341-8.962c-0.113-4.799-0.335-9.989-0.868-14.756
			c-0.471-3.901-1.091-7.875-2.547-11.544c-1.013-2.379-2.355-4.669-3.936-6.716c-1.207-1.518-2.575-2.969-4.212-4.027
			c-1.272-0.809-2.685-1.392-4.119-1.845c-2.204-0.687-4.517-1.085-6.808-1.342c-1.534-0.865-3.17-1.633-4.814-2.265
			c-1.219-0.461-2.486-0.884-3.774-1.095c-2.284-0.387-4.704,0.186-6.986-0.237c-0.579-0.101-1.19-0.277-1.711-0.539
			c-0.9-0.458-1.512-1.084-2.145-1.774l-1.337-1.521c-1.629-1.856-4.552-3.576-6.679-1.623c-0.078,0.072-0.116,0.108-0.116,0.108
			c-0.825,0.769-1.115,1.828-1.703,2.726c-0.055,0.077-0.069,0.096-0.069,0.096c-0.057,0.073-0.072,0.09-0.072,0.09
			c-0.059,0.068-0.074,0.084-0.074,0.084c-0.077,0.078-0.093,0.093-0.093,0.093c-0.065,0.056-0.081,0.07-0.081,0.07
			c-0.068,0.05-0.085,0.062-0.085,0.062c-0.071,0.044-0.08,0.049-0.08,0.049c-0.074,0.038-0.083,0.043-0.083,0.043
			c-0.077,0.032-0.087,0.035-0.087,0.035c-0.07,0.022-0.082,0.026-0.082,0.026c-0.071,0.017-0.083,0.019-0.083,0.019
			c-0.073,0.012-0.086,0.013-0.086,0.013c-0.063,0.006-0.089,0.008-0.089,0.008c-0.052,0.002-0.078,0.003-0.078,0.003
			c-0.053,0-0.08-0.001-0.08-0.001c-0.054-0.002-0.082-0.004-0.082-0.004c-0.414-0.035-0.734-0.136-1.088-0.244l-1.047-0.346
			c-0.278-0.089-0.643-0.186-0.887-0.222c-0.119-0.018-0.207-0.026-0.267-0.03c-0.057-0.003-0.086-0.004-0.086-0.004
			c-0.065-0.001-0.086,0-0.086,0c-0.064,0.002-0.085,0.003-0.085,0.003c-0.062,0.004-0.083,0.006-0.083,0.006
			c-0.116,0.011-0.172,0.022-0.241,0.035c-0.078,0.016-0.116,0.025-0.116,0.025c-0.076,0.019-0.113,0.03-0.113,0.03
			c-0.42,0.119-0.852,0.352-1.203,0.457c-0.062,0.018-0.093,0.026-0.093,0.026c-0.077,0.018-0.092,0.021-0.092,0.021
			c-0.077,0.013-0.092,0.015-0.092,0.015c-0.07,0.007-0.083,0.008-0.083,0.008c-0.078,0.003-0.104,0.003-0.104,0.003
			c-0.078-0.002-0.104-0.004-0.104-0.004c-0.188-0.011-0.487-0.069-0.623-0.09c-0.052-0.008-0.104-0.014-0.104-0.014
			c-0.078-0.009-0.104-0.011-0.104-0.011c-0.078-0.005-0.103-0.006-0.103-0.006c-0.078-0.001-0.103,0-0.103,0
			c-0.077,0.005-0.09,0.006-0.09,0.006c-0.077,0.01-0.09,0.012-0.09,0.012c-0.077,0.016-0.09,0.019-0.09,0.019
			c-0.077,0.023-0.09,0.028-0.09,0.028c-0.072,0.028-0.09,0.036-0.09,0.036c-0.072,0.035-0.09,0.045-0.09,0.045
			c-0.072,0.041-0.09,0.052-0.09,0.052c-0.073,0.047-0.091,0.059-0.091,0.059c-0.073,0.052-0.109,0.08-0.109,0.08
			c-0.244,0.184-0.727,0.643-0.889,0.785c-0.217,0.194-0.497,0.412-0.711,0.539c-0.072,0.043-0.096,0.056-0.096,0.056
			c-0.074,0.04-0.098,0.053-0.098,0.053c-0.075,0.037-0.1,0.049-0.1,0.049c-0.111,0.049-0.136,0.058-0.181,0.075
			c-0.053,0.019-0.08,0.027-0.08,0.027c-0.054,0.017-0.088,0.027-0.088,0.027c-0.07,0.018-0.105,0.027-0.105,0.027
			c-0.071,0.015-0.107,0.022-0.107,0.022c-0.072,0.012-0.109,0.018-0.109,0.018c-0.073,0.009-0.11,0.014-0.11,0.014
			c-1,0.083-1.966-0.191-2.944-0.315c-0.484-0.068-1.05-0.103-1.525-0.038c-0.454,0.055-0.886,0.225-1.242,0.436
			c-1.061,0.655-1.692,1.576-2.274,2.609c-1.226,2.219-1.711,4.931-2.326,7.37c-0.21,0.799-0.484,1.701-0.898,2.398
			c-0.366,0.637-0.904,1.136-1.484,1.472c-0.83,0.477-1.626,0.695-2.52,0.916c-1.157,0.273-2.407,0.45-3.588,0.595
			c-2.741,0.349-7.422,0.57-10.221,0.77c-0.941,0.046-2.064,0.109-3.004,0.077c-1.622-0.03-3.247-0.31-4.777-0.851
			c-4.608-1.577-8.983-5.296-12.9-8.118c-4.905-4.281-10.676-7.675-16.959-9.457c-6.132-1.705-12.706-2.058-18.965-0.864
			c-1.594,0.312-3.184,0.779-4.703,1.358c-3.169,1.216-6.531,2.97-9.854,3.721c-4.705,1.098-10.513,0.937-15.345,1.097
			c-1.927,0.066-3.938,0.15-5.832,0.533c-1.843,0.342-3.989,1.195-5.752,1.823c0.003-0.062,0.004-0.083,0.004-0.083
			c0.001-0.062,0.001-0.082,0.001-0.082c-0.001-0.061-0.002-0.081-0.002-0.081c-0.004-0.061-0.005-0.081-0.005-0.081
			c-0.006-0.06-0.008-0.08-0.008-0.08c-0.008-0.059-0.012-0.079-0.012-0.079c-0.015-0.078-0.019-0.097-0.019-0.097
			c-0.018-0.077-0.023-0.096-0.023-0.096c-0.022-0.076-0.028-0.095-0.028-0.095c-0.026-0.075-0.033-0.094-0.033-0.094
			c-0.03-0.074-0.038-0.092-0.038-0.092c-0.034-0.073-0.043-0.091-0.043-0.091c-0.038-0.072-0.048-0.09-0.048-0.09
			c-0.042-0.071-0.052-0.088-0.052-0.088c-0.045-0.07-0.057-0.087-0.057-0.087c-0.037-0.052-0.062-0.086-0.062-0.086
			c-0.053-0.068-0.081-0.101-0.081-0.101c-0.058-0.066-0.088-0.099-0.088-0.099c-0.062-0.065-0.095-0.098-0.095-0.098
			c-0.067-0.064-0.102-0.096-0.102-0.096c-0.071-0.063-0.108-0.094-0.108-0.094c-0.947-0.76-2.066-1.055-3.205-1.357
			c-2.009-0.489-4.14-0.753-6.196-0.967c-3.435-0.353-6.952-0.445-10.392-0.122c-2.283,0.202-4.58,0.633-6.806,1.172
			c-1.138,0.28-2.333,0.6-3.432,1.007c-0.703,0.263-1.514,0.608-2.085,1.062c-0.077,0.064-0.101,0.086-0.101,0.086
			c-0.071,0.065-0.095,0.088-0.095,0.088c-0.07,0.071-0.093,0.095-0.093,0.095c-0.068,0.074-0.09,0.099-0.09,0.099
			c-0.202,0.237-0.318,0.419-0.437,0.629c-2.961,0.491-5.981,1.465-8.574,2.985c-1.862-12.821-5.791-25.838-8.38-38.527
			c-0.975-4.759-1.962-10.03-2.608-14.818c-0.389-2.756-0.651-5.846-0.954-8.609c-0.679-5.984-1.722-12.067-3.082-17.934
			c-1.569-6.731-3.58-13.481-6.039-19.941c-2.111-5.664-5.097-11.564-7.477-17.124c-0.907-2.186-1.967-4.491-2.482-6.808
			c-0.58-2.564-0.969-5.454-1.322-8.063c-0.465-3.696-1.6-13.633-2.059-17.432c-1.147-9.097-2.921-21.665-3.722-30.734
			c-0.613-6.449-0.892-14.484-1.345-20.955c-0.013-0.148-0.031-0.256-0.044-0.329c-0.014-0.07-0.022-0.105-0.022-0.105
			c-0.016-0.069-0.025-0.103-0.025-0.103c-0.019-0.067-0.029-0.1-0.029-0.1c-0.021-0.066-0.032-0.098-0.032-0.098
			c-0.023-0.064-0.036-0.096-0.036-0.096c-0.026-0.063-0.039-0.094-0.039-0.094c-0.028-0.061-0.043-0.091-0.043-0.091
			c-0.03-0.06-0.046-0.089-0.046-0.089c-0.033-0.058-0.05-0.087-0.05-0.087c-0.035-0.056-0.053-0.084-0.053-0.084
			c-0.037-0.055-0.057-0.082-0.057-0.082c-0.04-0.053-0.06-0.08-0.06-0.08c-0.064-0.077-0.086-0.103-0.086-0.103
			c-0.068-0.074-0.092-0.098-0.092-0.098c-0.073-0.071-0.098-0.094-0.098-0.094c-0.078-0.068-0.104-0.09-0.104-0.09
			C612.408,191.646,612.38,191.625,612.38,191.625z"/>
	</g>
	<g id="POLYLINE_6_">
		
			<path fill="none" stroke="#FF6B6B" stroke-width="3.5" stroke-linecap="round" stroke-linejoin="round" stroke-miterlimit="10" d="
			M132.397,207.617c-1.106-11.665-0.479-23.525,1.341-35.087c0.995-6.423,3.227-14.021,4.793-20.366
			c0.995-3.935,1.991-9.96,2.803-13.977c0.534-2.52,1.161-5.101,2.101-7.501c0.782-2.022,1.859-3.951,3.302-5.576
			c1.684-1.967,3.931-3.64,5.804-5.417c1.041-0.988,1.948-2.155,2.44-3.516c0.374-1.004,0.531-2.084,0.524-3.153
			c-0.008-1.142-0.188-2.386-0.855-3.276c-0.06-0.077-0.081-0.102-0.081-0.102c-0.064-0.074-0.085-0.098-0.085-0.098
			c-0.067-0.07-0.09-0.093-0.09-0.093c-0.07-0.067-0.094-0.088-0.094-0.088c-0.074-0.063-0.099-0.084-0.099-0.084
			c-0.077-0.059-0.104-0.079-0.104-0.079c-0.054-0.037-0.081-0.056-0.081-0.056c-0.068-0.043-0.089-0.056-0.089-0.056
			c-0.063-0.036-0.084-0.048-0.084-0.048c-0.064-0.034-0.086-0.045-0.086-0.045c-0.066-0.032-0.089-0.042-0.089-0.042
			c-0.838-0.367-1.693-0.361-2.548-0.292c-1.138,0.109-2.266,0.404-3.353,0.751c-4.662,1.566-9.022,4.044-12.904,7.051
			c-2.359,1.852-4.561,3.964-6.398,6.338c-2.481,3.148-4.686,7.546-6.635,11.063c-0.837,1.475-1.738,2.97-2.817,4.279
			c-0.879,1.072-1.893,2.051-3.006,2.878c-1.422,1.065-3.03,1.892-4.665,2.578c-1.987,0.857-4.36,1.674-6.127,2.924
			c-0.788,0.543-1.536,1.285-2.022,2.055c-0.763,1.187-1.151,2.5-1.244,3.889c-0.104,1.575,0.241,3.179,1.019,4.554
			c0.863,1.576,2.34,3.145,3.484,4.533c1.009,1.213,1.952,2.521,2.733,3.893c1.598,2.777,2.564,5.94,2.621,9.153
			c0.061,2.866-0.426,5.751-0.997,8.552c-0.985,4.572-2.496,10.156-2.993,14.797l-0.864,8.375c-0.271,0.14-0.503,0.289-0.703,0.446
			c-0.076,0.061-0.113,0.093-0.113,0.093c-0.072,0.063-0.108,0.095-0.108,0.095c-0.069,0.065-0.102,0.098-0.102,0.098
			c-0.065,0.067-0.097,0.102-0.097,0.102c-0.062,0.069-0.092,0.105-0.092,0.105c-0.059,0.072-0.087,0.108-0.087,0.108
			c-0.056,0.074-0.083,0.111-0.083,0.111c-0.716,1.038-0.845,2.26-1.004,3.465c-0.916,8.783-2.045,18.644-2.274,27.431
			c-0.124,4.704-0.027,9.503,0.687,14.161c0.754,5.394,2.743,11.761,4.099,17.054c0.899,3.562,1.623,7.391,2.114,11.031
			c0.77,5.76,1.085,11.727,0.884,17.535c-0.232,8.571-2.607,24.026-3.632,32.66c-2.333,19.12-3.412,63.655-4.413,83.503
			c-0.09,2.971-0.154,6.277-0.015,9.236c0.176,3.815,0.625,7.682,1.8,11.328c1.321,4.154,3.748,7.931,6.88,10.953
			c2.826,2.734,6.213,4.901,9.884,6.31c3.332,1.283,6.898,1.939,10.446,2.255c8.208,0.64,16.724,0.224,24.938-0.281
			c5.409,0.798,11.08,0.913,16.547,0.855c3.752-0.049,7.915-0.229,11.65-0.548c2.366-0.195,4.912-0.55,7.262-0.744
			c3.028-0.237,6.127-0.281,9.151,0c1.368,0.117,2.802,0.372,4.166,0.541c3.683,0.448,7.738,0.608,11.458,0.705
			c7.259,0.168,14.954-0.009,22.196-0.555c4.293-0.3,9.196-0.894,13.467-1.309c5.67-0.493,11.533-0.569,17.215-0.247
			c4.466,0.238,9.42,0.902,13.886,1.284c6.31,0.548,13.155,0.887,19.488,0.889c0.98,0,2.007-0.036,2.985-0.112
			c2.401-0.188,4.811-0.627,7.075-1.463c1.966-0.725,3.834-1.773,5.413-3.157c1.174-1.006,2.145-2.23,3.021-3.498
			c2.299-3.267,4.17-6.867,5.38-10.679c0.995-0.238,2.032-0.389,3.049-0.492c1.033-0.108,2.096-0.141,3.133-0.063
			c-0.01,0.92,0.156,1.769,0.375,2.649c0.301,1.163,0.711,2.328,1.145,3.447c0.801,2.035,1.765,4.038,2.971,5.865
			c0.78,1.169,1.671,2.288,2.755,3.19c1.395,1.175,3.136,1.854,4.9,2.251c1.504,0.351,3.253,0.57,4.789,0.78
			c3.219,0.423,6.761,0.831,9.999,1.008c4.63,0.238,9.37,0.191,13.889-0.946c3.809,0.598,7.745,0.939,11.596,1.102
			c6.946,0.243,29.741,0.087,36.781,0.099c4.107-0.071,8.708-0.123,12.777-0.581c0.956-0.121,1.998-0.258,2.91-0.554
			c0.71-0.244,1.442-0.691,1.95-1.18c0.632-0.606,1.005-1.32,1.2-2.095c0.228-0.953,0.239-2.052-0.104-2.953
			c-0.03-0.074-0.045-0.11-0.045-0.11c-0.032-0.072-0.048-0.108-0.048-0.108c-0.034-0.07-0.052-0.105-0.052-0.105
			c-0.037-0.068-0.056-0.102-0.056-0.102c-0.039-0.067-0.059-0.1-0.059-0.1c-0.041-0.065-0.063-0.097-0.063-0.097
			c-0.044-0.063-0.066-0.094-0.066-0.094c-0.046-0.061-0.07-0.092-0.07-0.092c-0.048-0.06-0.073-0.089-0.073-0.089
			c-0.051-0.058-0.077-0.087-0.077-0.087c-0.053-0.056-0.08-0.084-0.08-0.084c-0.055-0.055-0.084-0.081-0.084-0.081
			c-0.058-0.053-0.087-0.079-0.087-0.079c-0.06-0.051-0.091-0.076-0.091-0.076c-0.062-0.049-0.094-0.074-0.094-0.074
			c-1.029-0.759-2.242-0.875-3.445-1.103c-1.81-0.293-3.741-0.445-5.574-0.543c-1.076-0.049-2.334-0.072-3.387-0.258
			c-1.857-0.298-3.66-0.922-5.33-1.782c-1.601-0.797-3.061-1.911-4.502-2.961c-1.746-1.239-3.623-2.428-5.518-3.427
			c-1.991-1.065-4.142-1.907-6.279-2.63c-3.414-1.156-7.228-2.215-10.718-3.13c0.82-3.164,1.118-6.479,1.18-9.74
			c0.05-3.947-0.261-7.956-1.106-11.816c-0.673-3.005-1.697-6.032-3.645-8.463c-0.89-1.107-1.975-2.081-3.243-2.733
			c-1.271-2.359-2.953-4.493-4.875-6.355c-1.561-1.518-3.286-2.91-5.223-3.919c-1.039-0.54-2.148-0.968-3.293-1.223
			c-1.41-0.314-2.881-0.377-4.322-0.373c-0.765,0.01-3.156,0.077-3.875,0.05c-0.9-0.016-1.891-0.153-2.668-0.561
			c-0.953-0.497-1.711-1.226-2.476-1.96c-0.759-0.754-1.487-1.584-2.126-2.441c-0.476-0.625-1.031-1.538-1.458-2.205
			c-0.346-0.538-0.793-1.159-1.251-1.554c-0.076-0.065-0.102-0.086-0.102-0.086c-1.024-0.854-2.537-0.94-3.63-0.312
			c-0.078,0.047-0.103,0.063-0.103,0.063c-0.076,0.05-0.101,0.068-0.101,0.068c-0.074,0.054-0.098,0.072-0.098,0.072
			c-0.071,0.057-0.095,0.077-0.095,0.077c-0.069,0.061-0.092,0.082-0.092,0.082c-0.067,0.065-0.089,0.088-0.089,0.088
			c-0.065,0.069-0.086,0.093-0.086,0.093c-0.063,0.072-0.083,0.097-0.083,0.097c-0.267,0.331-0.409,0.583-0.59,0.907
			c-0.176,0.324-0.524,1.017-0.725,1.302c-0.047,0.067-0.062,0.089-0.062,0.089c-0.048,0.063-0.064,0.084-0.064,0.084
			c-0.049,0.059-0.065,0.078-0.065,0.078c-0.067,0.072-0.084,0.089-0.084,0.089c-0.078,0.072-0.087,0.079-0.087,0.079
			c-0.072,0.056-0.081,0.062-0.081,0.062c-0.075,0.048-0.084,0.053-0.084,0.053c-0.077,0.039-0.087,0.043-0.087,0.043
			c-0.078,0.029-0.087,0.032-0.087,0.032c-0.07,0.019-0.079,0.021-0.079,0.021c-0.072,0.013-0.091,0.015-0.091,0.015
			c-0.074,0.007-0.093,0.008-0.093,0.008c-0.076,0.001-0.096,0.001-0.096,0.001c-0.059-0.003-0.078-0.004-0.078-0.004
			c-0.06-0.005-0.08-0.008-0.08-0.008c-0.24-0.032-0.384-0.074-0.586-0.131l-0.611-0.187c-0.158-0.047-0.383-0.103-0.518-0.123
			c-0.063-0.009-0.084-0.012-0.084-0.012c-0.062-0.007-0.083-0.009-0.083-0.009c-0.062-0.004-0.082-0.005-0.082-0.005
			c-0.061-0.001-0.081-0.001-0.081-0.001c-0.072,0.003-0.09,0.004-0.09,0.004c-0.071,0.007-0.089,0.009-0.089,0.009
			c-0.07,0.01-0.087,0.013-0.087,0.013c-0.069,0.014-0.086,0.018-0.086,0.018c-0.068,0.017-0.102,0.026-0.102,0.026
			c-0.067,0.02-0.1,0.031-0.1,0.031c-0.349,0.115-0.709,0.314-1.022,0.413c-0.064,0.019-0.095,0.028-0.095,0.028
			c-0.064,0.016-0.08,0.02-0.08,0.02c-0.064,0.013-0.081,0.016-0.081,0.016c-0.065,0.01-0.081,0.012-0.081,0.012
			c-0.065,0.006-0.082,0.007-0.082,0.007c-0.066,0.002-0.083,0.002-0.083,0.002c-0.058-0.002-0.079-0.003-0.079-0.003
			c-0.062-0.006-0.083-0.009-0.083-0.009c-0.063-0.01-0.084-0.014-0.084-0.014c-0.064-0.013-0.085-0.018-0.085-0.018
			c-0.065-0.017-0.086-0.023-0.086-0.023c-0.921-0.294-1.746-0.964-2.7-1.076c-0.071-0.008-0.106-0.011-0.106-0.011
			c-0.071-0.005-0.107-0.007-0.107-0.007c-0.701-0.025-1.275,0.144-1.89,0.326c-0.722,0.225-1.776,0.599-2.51,0.729
			c-0.506,0.099-1.028,0.13-1.543,0.116c-1.363-0.015-2.878-0.401-4.218-0.074c-0.074,0.02-0.111,0.031-0.111,0.031
			c-0.073,0.023-0.109,0.035-0.109,0.035c-0.072,0.026-0.107,0.04-0.107,0.04c-0.073,0.03-0.109,0.046-0.109,0.046
			c-0.072,0.033-0.107,0.051-0.107,0.051c-0.07,0.036-0.105,0.055-0.105,0.055c-0.069,0.039-0.103,0.06-0.103,0.06
			c-0.068,0.042-0.101,0.064-0.101,0.064c-0.066,0.045-0.099,0.069-0.099,0.069c-0.065,0.048-0.097,0.073-0.097,0.073
			c-0.063,0.051-0.095,0.077-0.095,0.077c-0.062,0.054-0.093,0.082-0.093,0.082c-0.8,0.761-1.186,1.668-1.51,2.676
			c-0.412,1.343-0.562,2.766-0.645,4.164l-0.182,4.395c-0.09,1.439-0.229,2.988-0.745,4.335c-0.34,0.897-0.928,1.699-1.6,2.289
			c-0.698,0.621-1.521,1.095-2.361,1.497c-1.172,0.553-2.452,1.032-3.678,1.451c-3.241,1.074-6.674,1.836-10.105,1.597
			c-4.034-6.738-9.137-12.859-14.915-18.17c-4.899-4.473-10.399-8.458-16.607-10.894c-8.96-3.547-18.865-3.681-28.345-2.846
			c-4.161,0.409-8.367,1.034-12.405,2.134c-2.358,0.666-4.8,1.617-6.396,3.562c-3.537,0.674-7.084,1.646-10.265,3.367
			c-1.459,0.782-2.821,1.759-4.066,2.848c-2.591,2.24-5.032,5.174-7.802,7.199c-2.984,2.184-6.587,3.34-10.133,4.25
			c-1.335-2.151-3.72-3.026-6.064-3.473c-4.344-0.821-9.429-0.654-13.855-0.741c-1.519-0.055-3.122-0.097-4.538-0.703
			c-0.878-0.37-1.568-1.036-2.029-1.784c-0.787-1.279-1.174-2.714-1.558-4.148c-3.794-17.325-11.637-44.332-14.901-61.705
			c-1.211-6.353-2.62-16.052-3.95-22.362c-0.919-4.418-2.252-9.065-3.607-13.373c0,0-5.366-16.361-5.366-16.361
			c-1.732-5.498-3.316-11.263-4.403-16.918c-0.98-4.981-1.616-10.272-2.06-15.334c-0.579-6.409-0.904-14.889-1.373-21.315
			c-0.125-1.394-0.291-2.876-0.566-4.247C134.025,210.692,133.518,208.889,132.397,207.617z"/>
	</g>
</g>
</svg>
